<svg version="1.1" id="Layer_1" xmlns="http://www.w3.org/2000/svg" xmlns:xlink="http://www.w3.org/1999/xlink" x="0px" y="0px"
	 width="100%" viewBox="0 0 1080 1080" enable-background="new 0 0 1080 1080" xml:space="preserve">
<path fill="#707BFB" opacity="1.000000" stroke="none" 
	d="
M0.999996,1027.000000 
	C1.000000,702.973145 1.000000,378.946289 1.000500,54.056610 
	C1.300997,52.441162 1.742584,51.713448 1.880203,50.932194 
	C4.998412,33.230270 13.896683,19.105633 29.470123,10.215821 
	C36.959805,5.940473 45.781502,3.998587 54.000000,1.000000 
	C378.360199,1.000000 702.720398,1.000000 1027.886963,1.153651 
	C1029.655640,1.534477 1030.609253,1.811641 1031.581543,1.981534 
	C1057.861572,6.573824 1078.122559,28.377195 1080.222656,54.952156 
	C1080.074585,56.945248 1080.002075,58.443466 1080.002075,59.941689 
	C1079.998169,379.054108 1079.998657,698.166565 1080.005859,1017.278992 
	C1080.005981,1020.942627 1080.095459,1024.606201 1080.156006,1028.670654 
	C1077.818848,1053.777588 1056.202271,1076.459595 1031.681885,1079.990967 
	C1030.432007,1080.171021 1029.226318,1080.656738 1028.000000,1081.000000 
	C934.306458,1081.000000 840.612976,1081.000000 746.484680,1080.531860 
	C746.049927,941.141052 746.049927,802.218384 746.049927,662.842346 
	C748.955872,662.842346 751.095276,662.842346 753.234680,662.842346 
	C795.899597,662.842224 838.564575,662.801208 881.229187,662.911987 
	C885.044189,662.921875 886.649841,662.140869 887.183838,657.886658 
	C892.887207,612.450623 898.865540,567.049133 904.741699,521.634766 
	C905.651550,514.602600 906.427002,507.553009 907.356995,499.735474 
	C853.228149,499.735474 799.851562,499.735474 746.331360,499.735474 
	C746.216980,497.726135 746.078064,496.413788 746.076782,495.101318 
	C746.042053,459.769684 745.907532,424.437439 746.093811,389.106903 
	C746.131348,381.982544 746.957031,374.789398 748.170105,367.757446 
	C752.394653,343.268555 766.067505,326.716187 790.555786,320.778931 
	C801.308044,318.172028 812.540039,316.607300 823.593689,316.364136 
	C851.412354,315.752228 879.253601,316.161285 907.085754,316.161072 
	C908.992859,316.161041 910.899902,316.161102 913.117920,316.161102 
	C913.117920,313.257568 913.117981,311.271606 913.117981,309.285675 
	C913.117798,266.954102 913.117310,224.622513 913.117554,182.290939 
	C913.117615,169.808304 913.123413,169.722427 900.353516,168.982788 
	C873.080811,167.403107 845.815063,165.617569 818.522949,164.480011 
	C787.343262,163.180405 756.233398,163.535294 725.619202,171.029388 
	C674.505981,183.541473 633.975708,210.816574 607.197693,256.679291 
	C586.896851,291.448456 578.461182,329.647430 577.991211,369.569519 
	C577.504639,410.895355 577.888550,452.231476 577.891724,493.563080 
	C577.891846,495.490906 577.891724,497.418701 577.891724,499.986389 
	C530.572632,499.986389 484.020660,499.986389 437.401886,499.986389 
	C437.401886,554.532043 437.401886,608.426697 437.401886,662.975159 
	C484.310150,662.975159 530.861450,662.975159 577.891785,662.975159 
	C577.891785,665.923401 577.891846,668.222046 577.891846,670.520691 
	C577.891785,805.015076 577.891235,939.509521 577.896301,1074.003906 
	C577.896362,1076.335938 577.963928,1078.667969 578.000000,1081.000000 
	C403.306458,1081.000000 228.612946,1081.000000 53.218517,1080.703613 
	C33.276512,1077.250732 18.183393,1067.611328 8.945989,1050.404175 
	C5.102293,1043.244385 3.578632,1034.838989 0.999996,1027.000000 
z"/>
<path fill="#FFFFFF" opacity="1.000000" stroke="none" 
	d="
M578.468628,1081.000000 
	C577.963928,1078.667969 577.896362,1076.335938 577.896301,1074.003906 
	C577.891235,939.509521 577.891785,805.015076 577.891846,670.520691 
	C577.891846,668.222046 577.891785,665.923401 577.891785,662.975159 
	C530.861450,662.975159 484.310150,662.975159 437.401886,662.975159 
	C437.401886,608.426697 437.401886,554.532043 437.401886,499.986389 
	C484.020660,499.986389 530.572632,499.986389 577.891724,499.986389 
	C577.891724,497.418701 577.891846,495.490906 577.891724,493.563080 
	C577.888550,452.231476 577.504639,410.895355 577.991211,369.569519 
	C578.461182,329.647430 586.896851,291.448456 607.197693,256.679291 
	C633.975708,210.816574 674.505981,183.541473 725.619202,171.029388 
	C756.233398,163.535294 787.343262,163.180405 818.522949,164.480011 
	C845.815063,165.617569 873.080811,167.403107 900.353516,168.982788 
	C913.123413,169.722427 913.117615,169.808304 913.117554,182.290939 
	C913.117310,224.622513 913.117798,266.954102 913.117981,309.285675 
	C913.117981,311.271606 913.117920,313.257568 913.117920,316.161102 
	C910.899902,316.161102 908.992859,316.161041 907.085754,316.161072 
	C879.253601,316.161285 851.412354,315.752228 823.593689,316.364136 
	C812.540039,316.607300 801.308044,318.172028 790.555786,320.778931 
	C766.067505,326.716187 752.394653,343.268555 748.170105,367.757446 
	C746.957031,374.789398 746.131348,381.982544 746.093811,389.106903 
	C745.907532,424.437439 746.042053,459.769684 746.076782,495.101318 
	C746.078064,496.413788 746.216980,497.726135 746.331360,499.735474 
	C799.851562,499.735474 853.228149,499.735474 907.356995,499.735474 
	C906.427002,507.553009 905.651550,514.602600 904.741699,521.634766 
	C898.865540,567.049133 892.887207,612.450623 887.183838,657.886658 
	C886.649841,662.140869 885.044189,662.921875 881.229187,662.911987 
	C838.564575,662.801208 795.899597,662.842224 753.234680,662.842346 
	C751.095276,662.842346 748.955872,662.842346 746.049927,662.842346 
	C746.049927,802.218384 746.049927,941.141052 746.024963,1080.531860 
	C690.312439,1081.000000 634.624878,1081.000000 578.468628,1081.000000 
z"/>
<path fill="#7C86FB" opacity="1.000000" stroke="none" 
	d="
M1080.143188,1028.269897 
	C1080.095459,1024.606201 1080.005981,1020.942627 1080.005859,1017.278992 
	C1079.998657,698.166565 1079.998169,379.054108 1080.002075,59.941689 
	C1080.002075,58.443466 1080.074585,56.945248 1080.507080,54.942657 
	C1080.934082,54.625523 1080.967041,54.812763 1081.000000,55.000000 
	C1081.000000,379.034912 1081.000000,703.069824 1080.802979,1027.674316 
	C1080.605835,1028.243896 1080.143188,1028.269897 1080.143188,1028.269897 
z"/>
<path fill="#FDFDFF" opacity="1.000000" stroke="none" 
	d="
M1081.000000,54.531342 
	C1080.967041,54.812763 1080.934082,54.625523 1080.616577,54.447784 
	C1078.122559,28.377195 1057.861572,6.573824 1031.581543,1.981534 
	C1030.609253,1.811641 1029.655640,1.534477 1028.346680,1.153651 
	C1045.594116,1.000000 1063.188232,1.000000 1081.000000,1.000000 
	C1081.000000,18.686966 1081.000000,36.374825 1081.000000,54.531342 
z"/>
<path fill="#FDFDFF" opacity="1.000000" stroke="none" 
	d="
M1080.156006,1028.670654 
	C1080.143188,1028.269897 1080.605835,1028.243896 1080.802979,1028.121948 
	C1081.000000,1045.593506 1081.000000,1063.186890 1081.000000,1081.000000 
	C1063.646362,1081.000000 1046.291870,1081.000000 1028.468628,1081.000000 
	C1029.226318,1080.656738 1030.432007,1080.171021 1031.681885,1079.990967 
	C1056.202271,1076.459595 1077.818848,1053.777588 1080.156006,1028.670654 
z"/>
<path fill="#FDFDFF" opacity="1.000000" stroke="none" 
	d="
M0.999996,1027.468628 
	C3.578632,1034.838989 5.102293,1043.244385 8.945989,1050.404175 
	C18.183393,1067.611328 33.276512,1077.250732 52.758812,1080.703613 
	C35.738506,1081.000000 18.477013,1081.000000 1.000000,1081.000000 
	C1.000000,1063.312988 1.000000,1045.625122 0.999996,1027.468628 
z"/>
<path fill="#FDFDFF" opacity="1.000000" stroke="none" 
	d="
M53.531342,1.000000 
	C45.781502,3.998587 36.959805,5.940473 29.470123,10.215821 
	C13.896683,19.105633 4.998412,33.230270 1.880203,50.932194 
	C1.742584,51.713448 1.300997,52.441162 1.000500,53.596909 
	C1.000000,36.406563 1.000000,18.813124 1.000000,1.000000 
	C18.353609,1.000000 35.708145,1.000000 53.531342,1.000000 
z"/>
</svg>