<svg version="1.1" id="Layer_1" xmlns="http://www.w3.org/2000/svg" xmlns:xlink="http://www.w3.org/1999/xlink" x="0px" y="0px"
	 width="100%" viewBox="0 0 1080 1920" enable-background="new 0 0 1080 1920" xml:space="preserve">
<path fill="#FFFFFF" opacity="1.000000" stroke="none" 
	d="
M1.000000,556.000000 
	C1.000000,370.666687 1.000000,185.833405 1.000000,1.000074 
	C360.999908,1.000050 720.999817,1.000050 1080.999878,1.000025 
	C1081.000000,320.999847 1081.000000,640.999695 1081.000000,960.999512 
	C1081.000000,1280.999512 1081.000000,1600.999390 1081.000000,1920.999512 
	C721.000305,1920.999756 361.000549,1920.999756 1.000415,1920.999878 
	C1.000000,1466.166626 1.000000,1011.333313 1.000000,556.000000 
M94.005150,1748.342285 
	C93.685013,1750.480103 93.363342,1752.617554 93.045006,1754.755615 
	C87.162300,1794.261963 81.281746,1833.768555 75.396416,1873.274414 
	C73.974098,1882.822144 72.470123,1892.358154 71.147888,1901.919556 
	C70.773087,1904.629639 69.953056,1907.998291 74.580826,1908.000732 
	C102.413322,1908.015625 130.245895,1908.031372 158.078278,1907.971313 
	C160.611740,1907.965820 162.656036,1907.351440 163.132385,1903.945312 
	C167.973297,1869.328613 172.926605,1834.727173 177.960190,1800.137817 
	C184.359390,1756.164551 190.828934,1712.201294 197.329605,1668.242920 
	C203.537933,1626.261353 209.819016,1584.290527 216.083221,1542.317261 
	C217.228897,1534.640747 218.446930,1526.975220 219.600525,1519.505371 
	C317.103058,1519.505371 414.024292,1519.505371 511.182709,1519.505371 
	C511.182709,1521.654419 511.182678,1523.479614 511.182678,1525.304810 
	C511.182678,1592.636108 511.181244,1659.967529 511.184814,1727.298828 
	C511.185181,1734.482300 511.238281,1734.524902 518.465393,1734.526001 
	C533.298279,1734.528320 548.131165,1734.527222 562.964050,1734.526245 
	C570.587219,1734.525635 570.594604,1734.524292 570.594849,1726.654785 
	C570.596863,1659.490112 570.596008,1592.325439 570.596008,1525.160767 
	C570.596008,1523.254761 570.596008,1521.348877 570.596008,1519.398926 
	C670.839111,1519.398926 770.280945,1519.398926 869.988525,1519.398926 
	C873.344482,1541.947021 876.672913,1564.321655 880.005188,1586.695557 
	C885.840088,1625.873047 891.678101,1665.049927 897.513306,1704.227295 
	C903.005188,1741.099976 908.506836,1777.971313 913.982361,1814.846436 
	C918.382385,1844.478271 922.756958,1874.114014 927.121033,1903.751221 
	C927.547668,1906.648438 928.848816,1908.069214 932.042908,1908.059204 
	C959.375122,1907.973145 986.707886,1907.975708 1014.040222,1908.048950 
	C1017.875671,1908.059326 1019.133667,1906.458374 1018.504578,1902.827759 
	C1017.908081,1899.385254 1017.491760,1895.911865 1016.976074,1892.454956 
	C1011.475830,1855.583618 1005.961365,1818.714355 1000.471313,1781.841553 
	C994.956726,1744.803833 989.474060,1707.761597 983.961121,1670.723755 
	C978.472717,1633.850708 972.957825,1596.981689 967.467957,1560.108887 
	C965.461975,1546.635254 963.494629,1533.155884 961.421021,1519.077148 
	C984.660828,1519.077148 1007.381409,1519.077148 1030.076172,1519.077148 
	C1030.982666,1490.903809 1011.523499,1465.824463 984.606445,1461.087524 
	C975.346924,1459.458130 965.717773,1459.826050 956.249634,1459.547974 
	C953.386108,1459.463745 952.188599,1458.812622 951.870789,1455.725220 
	C951.207153,1449.276123 950.001099,1442.883423 949.044861,1436.463501 
	C943.503418,1399.261841 937.964844,1362.059692 932.436890,1324.856079 
	C930.878662,1314.369019 929.359070,1303.876099 927.766663,1293.009766 
	C940.524719,1293.009766 952.842590,1292.815308 965.148926,1293.107910 
	C969.896057,1293.220825 971.150452,1291.454712 971.099854,1287.006592 
	C970.913879,1270.675781 971.027771,1254.341797 971.025391,1238.008911 
	C971.024353,1230.830688 971.020630,1230.824463 963.858032,1230.820923 
	C952.905396,1230.815552 941.952759,1230.819580 930.627258,1230.819580 
	C930.627258,1228.127197 930.627258,1225.984253 930.627319,1223.841309 
	C930.628296,924.183533 930.629333,624.525696 930.630249,324.867889 
	C930.630310,316.821686 930.630066,316.819641 922.590332,316.819519 
	C876.924988,316.818817 831.259705,316.819183 785.594360,316.819183 
	C783.836487,316.819183 782.078674,316.819183 780.172852,316.819183 
	C780.172852,305.643494 780.184692,295.157898 780.168213,284.672363 
	C780.158752,278.613312 779.711609,278.169342 773.604309,278.155609 
	C764.984741,278.136230 756.365051,278.150726 748.024719,278.150726 
	C747.593567,277.348877 747.338623,277.075470 747.299988,276.774261 
	C743.527100,247.382645 739.786621,217.986908 736.008057,188.596039 
	C732.781494,163.498367 729.451111,138.413788 726.330444,113.303047 
	C725.884766,109.717323 724.376526,108.429893 720.902466,108.439873 
	C697.736694,108.506401 674.570618,108.489006 651.404663,108.461624 
	C647.536316,108.457047 646.019165,110.032364 646.608582,114.036697 
	C647.868958,122.599937 648.841553,131.205429 649.942993,139.792221 
	C654.496948,175.293854 659.064026,210.793808 663.605896,246.296982 
	C664.947266,256.782867 666.221924,267.277252 667.546936,277.926544 
	C637.870667,277.926544 608.757202,277.926544 579.280457,277.926544 
	C579.280457,275.744781 579.280518,273.777649 579.280518,271.810516 
	C579.280396,188.146317 579.281799,104.482124 579.277100,20.817934 
	C579.276733,14.140960 579.128540,13.996633 572.627930,13.992619 
	C558.794983,13.984076 544.962097,13.988430 531.129150,13.990644 
	C523.745178,13.991826 523.742004,13.994781 523.741943,21.572111 
	C523.741455,105.069649 523.742065,188.567184 523.742310,272.064728 
	C523.742310,273.986237 523.742310,275.907745 523.742310,277.783020 
	C494.116577,277.783020 465.079193,277.783020 435.834991,277.783020 
	C438.038788,260.388214 440.161224,243.376862 442.354797,226.374680 
	C447.168945,189.061188 451.994507,151.749115 456.887207,114.445877 
	C457.464600,110.043633 455.817596,108.407661 451.437897,108.426956 
	C428.605713,108.527573 405.772522,108.529320 382.940399,108.421532 
	C378.976227,108.402824 377.328033,109.859390 376.935486,113.854134 
	C376.056671,122.797661 374.778961,131.702484 373.634247,140.619293 
	C369.076752,176.120132 364.516174,211.620575 359.938263,247.118790 
	C358.605927,257.450012 357.212158,267.773315 355.839905,278.150726 
	C346.960510,278.150726 338.635498,278.147400 330.310455,278.151733 
	C322.966797,278.155548 322.843781,278.281219 322.841339,285.762543 
	C322.838043,296.023682 322.840515,306.284821 322.840515,316.819183 
	C320.473572,316.819183 318.663422,316.819183 316.853241,316.819183 
	C266.854706,316.819183 216.856186,316.818848 166.857666,316.819641 
	C158.974609,316.819763 158.973862,316.822205 158.973862,324.903992 
	C158.973724,624.728455 158.973755,924.552979 158.973755,1224.377441 
	C158.973755,1226.458984 158.973755,1228.540649 158.973755,1230.819702 
	C144.096985,1230.819702 129.947540,1230.890259 115.799706,1230.770874 
	C112.198250,1230.740479 110.765892,1231.947998 110.794579,1235.691162 
	C110.928688,1253.189575 110.905167,1270.689941 110.813591,1288.188965 
	C110.794464,1291.845459 112.173256,1293.134888 115.863052,1293.076538 
	C127.359825,1292.894287 138.861313,1293.009766 150.360977,1293.009766 
	C154.089279,1293.009766 157.817596,1293.009766 161.807281,1293.009766 
	C153.478165,1348.927002 145.249832,1404.167603 137.011780,1459.473389 
	C132.021942,1459.473389 127.691254,1459.307983 123.377434,1459.507568 
	C114.247528,1459.929810 104.949585,1459.593872 96.035156,1461.256104 
	C70.168602,1466.079224 49.783573,1493.023560 51.819798,1519.242188 
	C77.120293,1519.242188 102.473305,1519.242188 128.122025,1519.242188 
	C127.174385,1525.606567 126.317131,1531.354248 125.462875,1537.102539 
	C119.958611,1574.141479 114.468666,1611.182617 108.947098,1648.218872 
	C104.014427,1681.305054 99.047081,1714.385864 94.005150,1748.342285 
z"/>
<path fill="#050505" opacity="1.000000" stroke="none" 
	d="
M94.050102,1747.905762 
	C99.047081,1714.385864 104.014427,1681.305054 108.947098,1648.218872 
	C114.468666,1611.182617 119.958611,1574.141479 125.462875,1537.102539 
	C126.317131,1531.354248 127.174385,1525.606567 128.122025,1519.242188 
	C102.473305,1519.242188 77.120293,1519.242188 51.819798,1519.242188 
	C49.783573,1493.023560 70.168602,1466.079224 96.035156,1461.256104 
	C104.949585,1459.593872 114.247528,1459.929810 123.377434,1459.507568 
	C127.691254,1459.307983 132.021942,1459.473389 137.011780,1459.473389 
	C145.249832,1404.167603 153.478165,1348.927002 161.807281,1293.009766 
	C157.817596,1293.009766 154.089279,1293.009766 150.360977,1293.009766 
	C138.861313,1293.009766 127.359825,1292.894287 115.863052,1293.076538 
	C112.173256,1293.134888 110.794464,1291.845459 110.813591,1288.188965 
	C110.905167,1270.689941 110.928688,1253.189575 110.794579,1235.691162 
	C110.765892,1231.947998 112.198250,1230.740479 115.799706,1230.770874 
	C129.947540,1230.890259 144.096985,1230.819702 158.973755,1230.819702 
	C158.973755,1228.540649 158.973755,1226.458984 158.973755,1224.377441 
	C158.973755,924.552979 158.973724,624.728455 158.973862,324.903992 
	C158.973862,316.822205 158.974609,316.819763 166.857666,316.819641 
	C216.856186,316.818848 266.854706,316.819183 316.853241,316.819183 
	C318.663422,316.819183 320.473572,316.819183 322.840515,316.819183 
	C322.840515,306.284821 322.838043,296.023682 322.841339,285.762543 
	C322.843781,278.281219 322.966797,278.155548 330.310455,278.151733 
	C338.635498,278.147400 346.960510,278.150726 355.839905,278.150726 
	C357.212158,267.773315 358.605927,257.450012 359.938263,247.118790 
	C364.516174,211.620575 369.076752,176.120132 373.634247,140.619293 
	C374.778961,131.702484 376.056671,122.797661 376.935486,113.854134 
	C377.328033,109.859390 378.976227,108.402824 382.940399,108.421532 
	C405.772522,108.529320 428.605713,108.527573 451.437897,108.426956 
	C455.817596,108.407661 457.464600,110.043633 456.887207,114.445877 
	C451.994507,151.749115 447.168945,189.061188 442.354797,226.374680 
	C440.161224,243.376862 438.038788,260.388214 435.834991,277.783020 
	C465.079193,277.783020 494.116577,277.783020 523.742310,277.783020 
	C523.742310,275.907745 523.742310,273.986237 523.742310,272.064728 
	C523.742065,188.567184 523.741455,105.069649 523.741943,21.572111 
	C523.742004,13.994781 523.745178,13.991826 531.129150,13.990644 
	C544.962097,13.988430 558.794983,13.984076 572.627930,13.992619 
	C579.128540,13.996633 579.276733,14.140960 579.277100,20.817934 
	C579.281799,104.482124 579.280396,188.146317 579.280518,271.810516 
	C579.280518,273.777649 579.280457,275.744781 579.280457,277.926544 
	C608.757202,277.926544 637.870667,277.926544 667.546936,277.926544 
	C666.221924,267.277252 664.947266,256.782867 663.605896,246.296982 
	C659.064026,210.793808 654.496948,175.293854 649.942993,139.792221 
	C648.841553,131.205429 647.868958,122.599937 646.608582,114.036697 
	C646.019165,110.032364 647.536316,108.457047 651.404663,108.461624 
	C674.570618,108.489006 697.736694,108.506401 720.902466,108.439873 
	C724.376526,108.429893 725.884766,109.717323 726.330444,113.303047 
	C729.451111,138.413788 732.781494,163.498367 736.008057,188.596039 
	C739.786621,217.986908 743.527100,247.382645 747.299988,276.774261 
	C747.338623,277.075470 747.593567,277.348877 748.024719,278.150726 
	C756.365051,278.150726 764.984741,278.136230 773.604309,278.155609 
	C779.711609,278.169342 780.158752,278.613312 780.168213,284.672363 
	C780.184692,295.157898 780.172852,305.643494 780.172852,316.819183 
	C782.078674,316.819183 783.836487,316.819183 785.594360,316.819183 
	C831.259705,316.819183 876.924988,316.818817 922.590332,316.819519 
	C930.630066,316.819641 930.630310,316.821686 930.630249,324.867889 
	C930.629333,624.525696 930.628296,924.183533 930.627319,1223.841309 
	C930.627258,1225.984253 930.627258,1228.127197 930.627258,1230.819580 
	C941.952759,1230.819580 952.905396,1230.815552 963.858032,1230.820923 
	C971.020630,1230.824463 971.024353,1230.830688 971.025391,1238.008911 
	C971.027771,1254.341797 970.913879,1270.675781 971.099854,1287.006592 
	C971.150452,1291.454712 969.896057,1293.220825 965.148926,1293.107910 
	C952.842590,1292.815308 940.524719,1293.009766 927.766663,1293.009766 
	C929.359070,1303.876099 930.878662,1314.369019 932.436890,1324.856079 
	C937.964844,1362.059692 943.503418,1399.261841 949.044861,1436.463501 
	C950.001099,1442.883423 951.207153,1449.276123 951.870789,1455.725220 
	C952.188599,1458.812622 953.386108,1459.463745 956.249634,1459.547974 
	C965.717773,1459.826050 975.346924,1459.458130 984.606445,1461.087524 
	C1011.523499,1465.824463 1030.982666,1490.903809 1030.076172,1519.077148 
	C1007.381409,1519.077148 984.660828,1519.077148 961.421021,1519.077148 
	C963.494629,1533.155884 965.461975,1546.635254 967.467957,1560.108887 
	C972.957825,1596.981689 978.472717,1633.850708 983.961121,1670.723755 
	C989.474060,1707.761597 994.956726,1744.803833 1000.471313,1781.841553 
	C1005.961365,1818.714355 1011.475830,1855.583618 1016.976074,1892.454956 
	C1017.491760,1895.911865 1017.908081,1899.385254 1018.504578,1902.827759 
	C1019.133667,1906.458374 1017.875671,1908.059326 1014.040222,1908.048950 
	C986.707886,1907.975708 959.375122,1907.973145 932.042908,1908.059204 
	C928.848816,1908.069214 927.547668,1906.648438 927.121033,1903.751221 
	C922.756958,1874.114014 918.382385,1844.478271 913.982361,1814.846436 
	C908.506836,1777.971313 903.005188,1741.099976 897.513306,1704.227295 
	C891.678101,1665.049927 885.840088,1625.873047 880.005188,1586.695557 
	C876.672913,1564.321655 873.344482,1541.947021 869.988525,1519.398926 
	C770.280945,1519.398926 670.839111,1519.398926 570.596008,1519.398926 
	C570.596008,1521.348877 570.596008,1523.254761 570.596008,1525.160767 
	C570.596008,1592.325439 570.596863,1659.490112 570.594849,1726.654785 
	C570.594604,1734.524292 570.587219,1734.525635 562.964050,1734.526245 
	C548.131165,1734.527222 533.298279,1734.528320 518.465393,1734.526001 
	C511.238281,1734.524902 511.185181,1734.482300 511.184814,1727.298828 
	C511.181244,1659.967529 511.182678,1592.636108 511.182678,1525.304810 
	C511.182678,1523.479614 511.182709,1521.654419 511.182709,1519.505371 
	C414.024292,1519.505371 317.103058,1519.505371 219.600525,1519.505371 
	C218.446930,1526.975220 217.228897,1534.640747 216.083221,1542.317261 
	C209.819016,1584.290527 203.537933,1626.261353 197.329605,1668.242920 
	C190.828934,1712.201294 184.359390,1756.164551 177.960190,1800.137817 
	C172.926605,1834.727173 167.973297,1869.328613 163.132385,1903.945312 
	C162.656036,1907.351440 160.611740,1907.965820 158.078278,1907.971313 
	C130.245895,1908.031372 102.413322,1908.015625 74.580826,1908.000732 
	C69.953056,1907.998291 70.773087,1904.629639 71.147888,1901.919556 
	C72.470123,1892.358154 73.974098,1882.822144 75.396416,1873.274414 
	C81.281746,1833.768555 87.162300,1794.261963 93.045006,1754.755615 
	C93.363342,1752.617554 93.685013,1750.480103 94.050102,1747.905762 
M923.986084,1224.382812 
	C923.986084,924.117065 923.986084,623.851318 923.986084,323.466492 
	C875.337097,323.466492 827.273865,323.466492 779.321899,323.466492 
	C769.469177,348.886841 756.137756,358.014008 729.166809,358.014008 
	C620.001831,358.014008 510.836884,358.014923 401.671936,358.012756 
	C390.005585,358.012512 378.335083,358.188171 366.673798,357.940063 
	C347.924927,357.541199 331.298401,345.491547 325.393463,327.800903 
	C324.151031,324.078644 322.637848,323.080109 318.860016,323.090607 
	C269.694489,323.227173 220.528473,323.181213 171.362579,323.181213 
	C169.579422,323.181213 167.796265,323.181213 165.964798,323.181213 
	C165.964798,626.008667 165.964798,928.221069 165.964798,1230.531006 
	C418.775055,1230.531006 671.183411,1230.531006 923.986084,1230.531006 
	C923.986084,1228.619141 923.986084,1226.982422 923.986084,1224.382812 
M570.596497,1301.514893 
	C570.596497,1354.085327 570.596497,1406.655762 570.596497,1459.235840 
	C667.749268,1459.235840 764.158081,1459.235840 861.039795,1459.235840 
	C852.776917,1403.713623 844.558777,1348.492065 836.341675,1293.277344 
	C747.584717,1293.277344 659.173828,1293.277344 570.596497,1293.277344 
	C570.596497,1295.869629 570.596497,1298.195190 570.596497,1301.514893 
M301.499725,1459.472900 
	C371.252838,1459.472900 441.005920,1459.472900 510.943634,1459.472900 
	C510.943634,1403.785645 510.943634,1348.572021 510.943634,1293.200195 
	C424.968018,1293.200195 339.231110,1293.200195 253.192017,1293.200195 
	C244.962540,1348.531372 236.754242,1403.719971 228.462036,1459.472900 
	C252.943619,1459.472900 276.721649,1459.472900 301.499725,1459.472900 
M205.500000,1293.008667 
	C193.211243,1293.008667 180.922470,1293.008667 168.430069,1293.008667 
	C138.222092,1495.955078 108.079277,1698.463867 77.952553,1900.864502 
	C78.756462,1901.187744 79.049263,1901.408325 79.342392,1901.408813 
	C101.338249,1901.441528 123.334381,1901.409058 145.329697,1901.529541 
	C148.322556,1901.545898 148.736786,1900.147583 149.103699,1897.652466 
	C154.478241,1861.103882 159.965714,1824.571655 165.426819,1788.035645 
	C171.281494,1748.866943 177.142593,1709.699097 182.989914,1670.529297 
	C188.788269,1631.687744 194.562744,1592.842651 200.366577,1554.001953 
	C205.899750,1516.972412 211.460678,1479.947021 217.003159,1442.918945 
	C222.521088,1406.054810 228.036545,1369.190186 233.542023,1332.324341 
	C235.478119,1319.359497 237.381424,1306.389893 239.360947,1293.008667 
	C228.118057,1293.008667 217.309036,1293.008667 205.500000,1293.008667 
M361.500061,1237.177002 
	C280.241364,1237.177002 198.982666,1237.177002 117.492371,1237.177002 
	C117.492371,1253.799438 117.492371,1269.875854 117.492371,1286.102661 
	C399.886963,1286.102661 682.031494,1286.102661 964.131592,1286.102661 
	C964.131592,1269.663330 964.131592,1253.600464 964.131592,1237.177002 
	C763.352661,1237.177002 562.926392,1237.177002 361.500061,1237.177002 
M928.584290,1343.082642 
	C926.091980,1326.486206 923.599731,1309.889771 921.104004,1293.270508 
	C898.549438,1293.270508 876.301636,1293.270508 853.828308,1293.270508 
	C856.658081,1312.487915 859.404602,1331.422974 862.239929,1350.344604 
	C872.425476,1418.318481 882.676453,1486.282715 892.834351,1554.260620 
	C901.344543,1611.211426 909.732727,1668.180420 918.223633,1725.134155 
	C926.788147,1782.581299 935.441467,1840.015381 943.934570,1897.473145 
	C944.405457,1900.658447 945.528320,1901.560913 948.658569,1901.540527 
	C968.490295,1901.410645 988.323364,1901.477295 1008.155945,1901.463257 
	C1009.111084,1901.462646 1010.066101,1901.312866 1011.483826,1901.193604 
	C1010.807312,1896.317505 1010.211975,1891.745239 1009.533997,1887.185303 
	C1004.027100,1850.146729 998.500366,1813.111206 992.988342,1776.073364 
	C987.500793,1739.199829 982.029358,1702.323975 976.539856,1665.450684 
	C970.707275,1626.272949 964.862183,1587.097168 959.021667,1547.920654 
	C953.475647,1510.719604 947.910156,1473.521606 942.387756,1436.317139 
	C937.818176,1405.531982 933.298950,1374.739380 928.584290,1343.082642 
M353.500061,284.848907 
	C345.527069,284.848907 337.554077,284.848907 329.498077,284.848907 
	C329.498077,295.746948 329.096283,306.229767 329.681122,316.657257 
	C329.942322,321.314392 331.501007,326.212921 333.653076,330.393341 
	C341.378754,345.400604 354.298737,351.540283 370.882538,351.517853 
	C448.195892,351.413422 525.509521,351.472015 602.822998,351.472198 
	C646.978333,351.472290 691.133728,351.493042 735.289062,351.462189 
	C753.703003,351.449341 770.566895,338.235077 772.700867,320.479279 
	C774.093689,308.890564 772.963501,296.998627 772.963501,284.848907 
	C633.715576,284.848907 494.107819,284.848907 353.500061,284.848907 
M572.889465,228.500000 
	C572.889465,159.426575 572.889465,90.353157 572.889465,21.247568 
	C558.308655,21.247568 544.418579,21.247568 530.469482,21.247568 
	C530.469482,106.983315 530.469482,192.351028 530.469482,277.753113 
	C544.708740,277.753113 558.599060,277.753113 572.889404,277.753113 
	C572.889404,261.426331 572.889404,245.463165 572.889465,228.500000 
M563.984192,1592.500000 
	C563.984192,1568.229736 563.984192,1543.959473 563.984192,1519.506592 
	C548.396423,1519.506592 533.352966,1519.506592 518.199524,1519.506592 
	C518.199524,1589.068848 518.199524,1658.283325 518.199524,1727.661133 
	C533.527466,1727.661133 548.573242,1727.661133 563.984131,1727.661133 
	C563.984131,1682.726074 563.984131,1638.113037 563.984192,1592.500000 
M664.846558,131.636566 
	C664.941040,132.631287 664.993469,133.632095 665.136108,134.619873 
	C670.817627,173.964935 676.497070,213.310303 682.204102,252.651642 
	C683.434570,261.134094 684.768372,269.601593 686.007996,277.769623 
	C704.677063,277.769623 722.705627,277.769623 740.850098,277.769623 
	C733.862488,223.317368 726.925232,169.258087 719.991516,115.225937 
	C700.573792,115.225937 681.644287,115.225937 662.425720,115.225937 
	C663.212646,120.573257 663.962524,125.668465 664.846558,131.636566 
M437.547699,126.923203 
	C438.062408,123.052109 438.577087,119.181007 439.080505,115.394836 
	C420.202118,115.394836 401.809174,115.394836 383.404114,115.394836 
	C376.435455,169.722549 369.515289,223.672363 362.572083,277.801697 
	C380.538147,277.801697 398.089661,277.801697 415.719421,277.801697 
	C422.959900,227.573456 430.152374,177.677948 437.547699,126.923203 
M563.983643,1321.500000 
	C563.983643,1312.085327 563.983643,1302.670776 563.983643,1293.270020 
	C548.304321,1293.270020 533.379883,1293.270020 518.310303,1293.270020 
	C518.310303,1348.680176 518.310303,1403.836548 518.310303,1459.030518 
	C533.620178,1459.030518 548.537781,1459.030518 563.983643,1459.030518 
	C563.983643,1413.330200 563.983643,1367.915161 563.983643,1321.500000 
z"/>
<path fill="#7884F2" opacity="1.000000" stroke="none" 
	d="
M923.986084,1224.864258 
	C923.986084,1226.982422 923.986084,1228.619141 923.986084,1230.531006 
	C671.183411,1230.531006 418.775055,1230.531006 165.964798,1230.531006 
	C165.964798,928.221069 165.964798,626.008667 165.964798,323.181213 
	C167.796265,323.181213 169.579422,323.181213 171.362579,323.181213 
	C220.528473,323.181213 269.694489,323.227173 318.860016,323.090607 
	C322.637848,323.080109 324.151031,324.078644 325.393463,327.800903 
	C331.298401,345.491547 347.924927,357.541199 366.673798,357.940063 
	C378.335083,358.188171 390.005585,358.012512 401.671936,358.012756 
	C510.836884,358.014923 620.001831,358.014008 729.166809,358.014008 
	C756.137756,358.014008 769.469177,348.886841 779.321899,323.466492 
	C827.273865,323.466492 875.337097,323.466492 923.986084,323.466492 
	C923.986084,623.851318 923.986084,924.117065 923.986084,1224.864258 
z"/>
<path fill="#FFFFFF" opacity="1.000000" stroke="none" 
	d="
M570.596497,1301.017822 
	C570.596497,1298.195190 570.596497,1295.869629 570.596497,1293.277344 
	C659.173828,1293.277344 747.584717,1293.277344 836.341675,1293.277344 
	C844.558777,1348.492065 852.776917,1403.713623 861.039795,1459.235840 
	C764.158081,1459.235840 667.749268,1459.235840 570.596497,1459.235840 
	C570.596497,1406.655762 570.596497,1354.085327 570.596497,1301.017822 
z"/>
<path fill="#FFFFFF" opacity="1.000000" stroke="none" 
	d="
M300.999695,1459.472900 
	C276.721649,1459.472900 252.943619,1459.472900 228.462036,1459.472900 
	C236.754242,1403.719971 244.962540,1348.531372 253.192017,1293.200195 
	C339.231110,1293.200195 424.968018,1293.200195 510.943634,1293.200195 
	C510.943634,1348.572021 510.943634,1403.785645 510.943634,1459.472900 
	C441.005920,1459.472900 371.252838,1459.472900 300.999695,1459.472900 
z"/>
<path fill="#F6F6F8" opacity="1.000000" stroke="none" 
	d="
M206.000000,1293.008667 
	C217.309036,1293.008667 228.118057,1293.008667 239.360947,1293.008667 
	C237.381424,1306.389893 235.478119,1319.359497 233.542023,1332.324341 
	C228.036545,1369.190186 222.521088,1406.054810 217.003159,1442.918945 
	C211.460678,1479.947021 205.899750,1516.972412 200.366577,1554.001953 
	C194.562744,1592.842651 188.788269,1631.687744 182.989914,1670.529297 
	C177.142593,1709.699097 171.281494,1748.866943 165.426819,1788.035645 
	C159.965714,1824.571655 154.478241,1861.103882 149.103699,1897.652466 
	C148.736786,1900.147583 148.322556,1901.545898 145.329697,1901.529541 
	C123.334381,1901.409058 101.338249,1901.441528 79.342392,1901.408813 
	C79.049263,1901.408325 78.756462,1901.187744 77.952553,1900.864502 
	C108.079277,1698.463867 138.222092,1495.955078 168.430069,1293.008667 
	C180.922470,1293.008667 193.211243,1293.008667 206.000000,1293.008667 
M158.893753,1484.903687 
	C158.859146,1485.896362 158.748123,1486.893066 158.802444,1487.880859 
	C159.135437,1493.936768 162.011246,1498.326050 167.787613,1500.299438 
	C173.362717,1502.204102 178.638306,1501.411377 182.877914,1496.979004 
	C187.062012,1492.604736 187.967117,1487.447632 185.783432,1481.834229 
	C183.735703,1476.570190 178.182571,1472.936523 172.570068,1473.001709 
	C166.268448,1473.074829 161.632782,1476.851440 158.893753,1484.903687 
z"/>
<path fill="#F6F6F8" opacity="1.000000" stroke="none" 
	d="
M362.000092,1237.177002 
	C562.926392,1237.177002 763.352661,1237.177002 964.131592,1237.177002 
	C964.131592,1253.600464 964.131592,1269.663330 964.131592,1286.102661 
	C682.031494,1286.102661 399.886963,1286.102661 117.492371,1286.102661 
	C117.492371,1269.875854 117.492371,1253.799438 117.492371,1237.177002 
	C198.982666,1237.177002 280.241364,1237.177002 362.000092,1237.177002 
z"/>
<path fill="#F6F6F8" opacity="1.000000" stroke="none" 
	d="
M928.670898,1343.516357 
	C933.298950,1374.739380 937.818176,1405.531982 942.387756,1436.317139 
	C947.910156,1473.521606 953.475647,1510.719604 959.021667,1547.920654 
	C964.862183,1587.097168 970.707275,1626.272949 976.539856,1665.450684 
	C982.029358,1702.323975 987.500793,1739.199829 992.988342,1776.073364 
	C998.500366,1813.111206 1004.027100,1850.146729 1009.533997,1887.185303 
	C1010.211975,1891.745239 1010.807312,1896.317505 1011.483826,1901.193604 
	C1010.066101,1901.312866 1009.111084,1901.462646 1008.155945,1901.463257 
	C988.323364,1901.477295 968.490295,1901.410645 948.658569,1901.540527 
	C945.528320,1901.560913 944.405457,1900.658447 943.934570,1897.473145 
	C935.441467,1840.015381 926.788147,1782.581299 918.223633,1725.134155 
	C909.732727,1668.180420 901.344543,1611.211426 892.834351,1554.260620 
	C882.676453,1486.282715 872.425476,1418.318481 862.239929,1350.344604 
	C859.404602,1331.422974 856.658081,1312.487915 853.828308,1293.270508 
	C876.301636,1293.270508 898.549438,1293.270508 921.104004,1293.270508 
	C923.599731,1309.889771 926.091980,1326.486206 928.670898,1343.516357 
M929.089661,1496.543823 
	C937.036682,1487.507080 930.663208,1474.271240 920.157227,1473.082153 
	C913.955017,1472.380249 907.775024,1476.112183 905.445862,1481.881592 
	C903.042542,1487.834839 905.130493,1495.058960 910.320862,1498.747437 
	C915.646118,1502.532227 922.723694,1501.894165 929.089661,1496.543823 
z"/>
<path fill="#F7F7F9" opacity="1.000000" stroke="none" 
	d="
M354.000061,284.848907 
	C494.107819,284.848907 633.715576,284.848907 772.963501,284.848907 
	C772.963501,296.998627 774.093689,308.890564 772.700867,320.479279 
	C770.566895,338.235077 753.703003,351.449341 735.289062,351.462189 
	C691.133728,351.493042 646.978333,351.472290 602.822998,351.472198 
	C525.509521,351.472015 448.195892,351.413422 370.882538,351.517853 
	C354.298737,351.540283 341.378754,345.400604 333.653076,330.393341 
	C331.501007,326.212921 329.942322,321.314392 329.681122,316.657257 
	C329.096283,306.229767 329.498077,295.746948 329.498077,284.848907 
	C337.554077,284.848907 345.527069,284.848907 354.000061,284.848907 
M558.730774,305.597168 
	C553.073303,302.562500 547.637207,302.642548 542.575623,306.868622 
	C537.714050,310.927704 536.401794,316.120300 538.089417,322.096436 
	C539.588074,327.403046 544.326721,331.100952 550.163513,331.721313 
	C556.091858,332.351440 561.876282,329.030243 564.283997,323.613861 
	C567.131470,317.208038 565.526306,311.465424 558.730774,305.597168 
z"/>
<path fill="#2255C1" opacity="1.000000" stroke="none" 
	d="
M572.889404,229.000000 
	C572.889404,245.463165 572.889404,261.426331 572.889404,277.753113 
	C558.599060,277.753113 544.708740,277.753113 530.469482,277.753113 
	C530.469482,192.351028 530.469482,106.983315 530.469482,21.247568 
	C544.418579,21.247568 558.308655,21.247568 572.889465,21.247568 
	C572.889465,90.353157 572.889465,159.426575 572.889404,229.000000 
z"/>
<path fill="#2256C3" opacity="1.000000" stroke="none" 
	d="
M563.984131,1593.000000 
	C563.984131,1638.113037 563.984131,1682.726074 563.984131,1727.661133 
	C548.573242,1727.661133 533.527466,1727.661133 518.199524,1727.661133 
	C518.199524,1658.283325 518.199524,1589.068848 518.199524,1519.506592 
	C533.352966,1519.506592 548.396423,1519.506592 563.984192,1519.506592 
	C563.984192,1543.959473 563.984192,1568.229736 563.984131,1593.000000 
z"/>
<path fill="#F6F6F8" opacity="1.000000" stroke="none" 
	d="
M664.779419,131.200119 
	C663.962524,125.668465 663.212646,120.573257 662.425720,115.225937 
	C681.644287,115.225937 700.573792,115.225937 719.991516,115.225937 
	C726.925232,169.258087 733.862488,223.317368 740.850098,277.769623 
	C722.705627,277.769623 704.677063,277.769623 686.007996,277.769623 
	C684.768372,269.601593 683.434570,261.134094 682.204102,252.651642 
	C676.497070,213.310303 670.817627,173.964935 665.136108,134.619873 
	C664.993469,133.632095 664.941040,132.631287 664.779419,131.200119 
z"/>
<path fill="#F6F6F8" opacity="1.000000" stroke="none" 
	d="
M437.446289,127.352821 
	C430.152374,177.677948 422.959900,227.573456 415.719421,277.801697 
	C398.089661,277.801697 380.538147,277.801697 362.572083,277.801697 
	C369.515289,223.672363 376.435455,169.722549 383.404114,115.394836 
	C401.809174,115.394836 420.202118,115.394836 439.080505,115.394836 
	C438.577087,119.181007 438.062408,123.052109 437.446289,127.352821 
z"/>
<path fill="#2256C3" opacity="1.000000" stroke="none" 
	d="
M563.983643,1322.000000 
	C563.983643,1367.915161 563.983643,1413.330200 563.983643,1459.030518 
	C548.537781,1459.030518 533.620178,1459.030518 518.310303,1459.030518 
	C518.310303,1403.836548 518.310303,1348.680176 518.310303,1293.270020 
	C533.379883,1293.270020 548.304321,1293.270020 563.983643,1293.270020 
	C563.983643,1302.670776 563.983643,1312.085327 563.983643,1322.000000 
z"/>
<path fill="#040404" opacity="1.000000" stroke="none" 
	d="
M158.939026,1484.486694 
	C161.632782,1476.851440 166.268448,1473.074829 172.570068,1473.001709 
	C178.182571,1472.936523 183.735703,1476.570190 185.783432,1481.834229 
	C187.967117,1487.447632 187.062012,1492.604736 182.877914,1496.979004 
	C178.638306,1501.411377 173.362717,1502.204102 167.787613,1500.299438 
	C162.011246,1498.326050 159.135437,1493.936768 158.802444,1487.880859 
	C158.748123,1486.893066 158.859146,1485.896362 158.939026,1484.486694 
z"/>
<path fill="#040404" opacity="1.000000" stroke="none" 
	d="
M928.844238,1496.821777 
	C922.723694,1501.894165 915.646118,1502.532227 910.320862,1498.747437 
	C905.130493,1495.058960 903.042542,1487.834839 905.445862,1481.881592 
	C907.775024,1476.112183 913.955017,1472.380249 920.157227,1473.082153 
	C930.663208,1474.271240 937.036682,1487.507080 928.844238,1496.821777 
z"/>
<path fill="#050505" opacity="1.000000" stroke="none" 
	d="
M559.045288,305.797302 
	C565.526306,311.465424 567.131470,317.208038 564.283997,323.613861 
	C561.876282,329.030243 556.091858,332.351440 550.163513,331.721313 
	C544.326721,331.100952 539.588074,327.403046 538.089417,322.096436 
	C536.401794,316.120300 537.714050,310.927704 542.575623,306.868622 
	C547.637207,302.642548 553.073303,302.562500 559.045288,305.797302 
z"/>
</svg>