<svg version="1.1" id="Layer_1" xmlns="http://www.w3.org/2000/svg" xmlns:xlink="http://www.w3.org/1999/xlink" x="0px" y="0px"
	 width="100%" viewBox="0 0 1279 1061" enable-background="new 0 0 1279 1061" xml:space="preserve">
<path fill="#FFFFFF" opacity="1.000000" stroke="none" 
	d="
M1280.000000,1056.000000 
	C1280.000000,1057.999756 1280.000000,1059.999634 1280.000000,1061.999512 
	C853.712463,1061.999756 427.424896,1061.999756 1.068665,1061.999756 
	C1.068665,708.416931 1.068665,354.833832 1.068665,1.125360 
	C427.333313,1.125360 853.666626,1.125360 1280.000000,1.118949 
	C1280.000000,77.771057 1280.000000,154.429581 1279.641724,231.308685 
	C1278.811523,220.559753 1278.214966,209.593475 1277.931274,198.619095 
	C1277.823730,194.452835 1276.620972,191.901733 1272.036255,191.828690 
	C1262.398438,191.675140 1252.729004,190.869736 1243.136475,191.428497 
	C1236.445068,191.818283 1232.889160,191.057617 1233.784912,201.115295 
	C1233.837280,201.704300 1233.434204,202.333832 1233.201172,203.077835 
	C1231.763428,203.151123 1230.445801,203.290573 1229.130127,203.274719 
	C1202.651001,202.955811 1176.172241,202.598251 1149.692871,202.291245 
	C1118.881592,201.934006 1088.068848,201.673386 1057.259521,201.192307 
	C1054.390991,201.147507 1051.334351,200.258957 1048.716309,199.019913 
	C1015.618896,183.356018 982.723083,167.260696 949.510742,151.846451 
	C855.315613,108.129295 761.022888,64.622063 666.677002,21.231241 
	C659.761536,18.050692 653.731812,14.422242 648.838074,8.451351 
	C643.043457,1.381216 633.438538,1.417732 628.238770,8.953092 
	C624.744812,14.016355 620.117737,16.483128 615.086975,18.938683 
	C610.600464,21.128544 606.088867,23.267263 601.601868,25.456171 
	C553.279480,49.029083 504.980865,72.650917 456.634216,96.173973 
	C387.336273,129.890900 318.012421,163.554611 248.650253,197.139038 
	C246.227127,198.312302 243.276428,198.905518 240.570236,198.909836 
	C179.407883,199.007523 118.245338,198.984909 57.082829,198.984924 
	C55.121021,198.984924 53.159214,198.984924 50.729786,198.984924 
	C51.285347,192.526077 47.007374,191.393600 42.437199,191.383331 
	C32.305096,191.360580 22.170296,191.662872 12.040356,191.960587 
	C7.623591,192.090393 6.215088,194.741470 6.227893,198.960968 
	C6.271884,213.456940 6.296503,227.959808 5.874306,242.446823 
	C5.718351,247.798111 8.173304,249.782928 12.809068,249.980362 
	C23.110966,250.419113 33.419243,250.849121 43.727867,250.937042 
	C50.119389,250.991562 51.346657,249.647568 52.561710,243.242386 
	C56.849800,242.036377 56.072147,245.198776 56.092518,247.491486 
	C56.363335,277.970856 56.677113,308.450073 56.833664,338.930115 
	C56.976601,366.759949 56.971703,394.590729 56.978954,422.421082 
	C56.997017,491.747589 57.075981,561.074219 56.960281,630.400574 
	C56.834873,705.545959 56.400936,780.690857 56.330334,855.836243 
	C56.293549,894.984131 56.743374,934.132568 56.986244,973.280640 
	C57.051365,983.777832 57.178108,994.274658 57.229103,1004.771912 
	C57.233624,1005.701599 56.885288,1006.632935 56.720921,1007.462219 
	C53.186867,1008.296021 50.669441,1008.330933 49.959831,1003.930664 
	C49.751141,1002.636475 47.235966,1000.807434 45.741016,1000.771912 
	C34.485508,1000.504395 23.219307,1000.516907 11.959726,1000.675171 
	C7.555475,1000.737061 6.218022,1003.593506 6.229559,1007.764038 
	C6.269198,1022.093445 6.066561,1036.423340 5.993199,1050.753174 
	C5.961624,1056.920654 7.047423,1058.426147 13.419426,1058.821655 
	C23.376896,1059.440063 33.364143,1059.681885 43.342403,1059.819092 
	C48.390125,1059.888550 52.805859,1058.604492 52.262897,1051.717285 
	C54.180080,1051.717285 55.651009,1051.716797 57.121933,1051.717407 
	C208.775986,1051.775635 360.430145,1051.761230 512.084045,1051.926636 
	C577.229919,1051.997681 642.375366,1052.466919 707.521118,1052.706665 
	C739.850220,1052.825684 772.179871,1052.793457 804.509094,1052.901245 
	C878.987488,1053.149780 953.465759,1053.448364 1027.944092,1053.713379 
	C1050.940674,1053.795288 1073.937622,1053.781250 1096.934082,1053.904419 
	C1140.914551,1054.139893 1184.894775,1054.431030 1228.874634,1054.765015 
	C1230.424072,1054.776733 1232.011475,1055.370361 1233.505127,1055.905396 
	C1236.094727,1056.833130 1238.575073,1058.640991 1241.188599,1058.822876 
	C1250.475342,1059.469238 1259.810181,1059.978760 1269.102539,1059.706421 
	C1272.768066,1059.598877 1276.369385,1057.300659 1280.000000,1056.000000 
z"/>
<path fill="#7580FB" opacity="1.000000" stroke="none" 
	d="
M1280.000000,1055.533936 
	C1276.369385,1057.300659 1272.768066,1059.598877 1269.102539,1059.706421 
	C1259.810181,1059.978760 1250.475342,1059.469238 1241.188599,1058.822876 
	C1238.575073,1058.640991 1236.094727,1056.833130 1233.505127,1055.905396 
	C1232.011475,1055.370361 1230.424072,1054.776733 1228.874634,1054.765015 
	C1184.894775,1054.431030 1140.914551,1054.139893 1096.934082,1053.904419 
	C1073.937622,1053.781250 1050.940674,1053.795288 1027.944092,1053.713379 
	C953.465759,1053.448364 878.987488,1053.149780 804.509094,1052.901245 
	C772.179871,1052.793457 739.850220,1052.825684 707.521118,1052.706665 
	C642.375366,1052.466919 577.229919,1051.997681 512.084045,1051.926636 
	C360.430145,1051.761230 208.775986,1051.775635 57.121933,1051.717407 
	C55.651009,1051.716797 54.180080,1051.717285 52.262897,1051.717285 
	C52.805859,1058.604492 48.390125,1059.888550 43.342403,1059.819092 
	C33.364143,1059.681885 23.376896,1059.440063 13.419426,1058.821655 
	C7.047423,1058.426147 5.961624,1056.920654 5.993199,1050.753174 
	C6.066561,1036.423340 6.269198,1022.093445 6.229559,1007.764038 
	C6.218022,1003.593506 7.555475,1000.737061 11.959726,1000.675171 
	C23.219307,1000.516907 34.485508,1000.504395 45.741016,1000.771912 
	C47.235966,1000.807434 49.751141,1002.636475 49.959831,1003.930664 
	C50.669441,1008.330933 53.186867,1008.296021 56.720921,1007.462219 
	C56.885288,1006.632935 57.233624,1005.701599 57.229103,1004.771912 
	C57.178108,994.274658 57.051365,983.777832 56.986244,973.280640 
	C56.743374,934.132568 56.293549,894.984131 56.330334,855.836243 
	C56.400936,780.690857 56.834873,705.545959 56.960281,630.400574 
	C57.075981,561.074219 56.997017,491.747589 56.978954,422.421082 
	C56.971703,394.590729 56.976601,366.759949 56.833664,338.930115 
	C56.677113,308.450073 56.363335,277.970856 56.092518,247.491486 
	C56.072147,245.198776 56.849800,242.036377 52.561710,243.242386 
	C51.346657,249.647568 50.119389,250.991562 43.727867,250.937042 
	C33.419243,250.849121 23.110966,250.419113 12.809068,249.980362 
	C8.173304,249.782928 5.718351,247.798111 5.874306,242.446823 
	C6.296503,227.959808 6.271884,213.456940 6.227893,198.960968 
	C6.215088,194.741470 7.623591,192.090393 12.040356,191.960587 
	C22.170296,191.662872 32.305096,191.360580 42.437199,191.383331 
	C47.007374,191.393600 51.285347,192.526077 50.729786,198.984924 
	C53.159214,198.984924 55.121021,198.984924 57.082829,198.984924 
	C118.245338,198.984909 179.407883,199.007523 240.570236,198.909836 
	C243.276428,198.905518 246.227127,198.312302 248.650253,197.139038 
	C318.012421,163.554611 387.336273,129.890900 456.634216,96.173973 
	C504.980865,72.650917 553.279480,49.029083 601.601868,25.456171 
	C606.088867,23.267263 610.600464,21.128544 615.086975,18.938683 
	C620.117737,16.483128 624.744812,14.016355 628.238770,8.953092 
	C633.438538,1.417732 643.043457,1.381216 648.838074,8.451351 
	C653.731812,14.422242 659.761536,18.050692 666.677002,21.231241 
	C761.022888,64.622063 855.315613,108.129295 949.510742,151.846451 
	C982.723083,167.260696 1015.618896,183.356018 1048.716309,199.019913 
	C1051.334351,200.258957 1054.390991,201.147507 1057.259521,201.192307 
	C1088.068848,201.673386 1118.881592,201.934006 1149.692871,202.291245 
	C1176.172241,202.598251 1202.651001,202.955811 1229.130127,203.274719 
	C1230.445801,203.290573 1231.763428,203.151123 1233.201172,203.077835 
	C1233.434204,202.333832 1233.837280,201.704300 1233.784912,201.115295 
	C1232.889160,191.057617 1236.445068,191.818283 1243.136475,191.428497 
	C1252.729004,190.869736 1262.398438,191.675140 1272.036255,191.828690 
	C1276.620972,191.901733 1277.823730,194.452835 1277.931274,198.619095 
	C1278.214966,209.593475 1278.811523,220.559753 1279.641724,231.764618 
	C1280.000000,236.689255 1280.000000,241.378510 1279.674805,246.672760 
	C1276.778809,248.509857 1274.257446,250.661301 1271.627686,250.802979 
	C1263.490479,251.241379 1255.292847,251.240662 1247.156616,250.763794 
	C1242.187012,250.472519 1236.733521,250.989487 1232.780762,246.467575 
	C1232.095947,245.684204 1230.075928,246.067963 1228.257446,245.866669 
	C1227.640625,501.455780 1227.025146,756.465210 1226.408936,1011.789246 
	C1228.149658,1011.789246 1230.718628,1011.789246 1233.579834,1011.789246 
	C1233.680054,1010.115051 1233.991211,1008.625916 1233.813110,1007.197876 
	C1233.281006,1002.929626 1235.399902,1000.687256 1239.332275,1000.622986 
	C1250.429077,1000.441467 1261.531982,1000.492432 1272.630371,1000.627991 
	C1276.215576,1000.671814 1277.781250,1002.768799 1277.866577,1006.483704 
	C1278.099609,1016.631531 1278.581665,1026.774414 1279.051147,1036.915161 
	C1279.114746,1038.288574 1279.671509,1039.638916 1280.000000,1041.000000 
	C1280.000000,1045.689331 1280.000000,1050.378540 1280.000000,1055.533936 
M1219.861084,340.431519 
	C1219.861084,309.013306 1219.861084,277.595093 1219.861084,245.173737 
	C834.547485,244.201279 449.879303,243.230453 65.606926,242.260620 
	C65.606926,497.584015 65.606926,751.583618 65.606926,1005.842712 
	C71.069466,1006.222107 75.674072,1006.757019 80.285706,1006.826904 
	C107.095276,1007.232910 133.905930,1007.752747 160.717255,1007.819946 
	C229.543915,1007.992432 298.371216,1007.892456 367.198059,1008.000671 
	C530.668091,1008.257690 694.138062,1008.516174 857.607788,1008.897156 
	C907.751770,1009.014038 957.895142,1009.501099 1008.038330,1009.871887 
	C1053.348633,1010.206848 1098.658691,1010.574463 1143.968018,1011.011108 
	C1160.616699,1011.171509 1177.262329,1011.610962 1193.910522,1011.843445 
	C1201.489258,1011.949280 1209.070801,1011.861389 1216.714111,1011.861389 
	C1217.117554,1002.675110 1217.711182,994.212524 1217.817749,985.743713 
	C1218.089966,964.084045 1218.220703,942.421814 1218.273926,920.760254 
	C1218.496460,830.282654 1218.667969,739.804932 1218.863403,649.327209 
	C1218.889648,637.162476 1218.949951,624.997864 1218.989136,612.833191 
	C1219.280518,522.357971 1219.570557,431.882782 1219.861084,340.431519 
M660.500000,199.286743 
	C784.327820,199.745026 908.155640,200.203308 1031.117798,200.658386 
	C906.690857,143.127106 781.571777,85.275780 656.186035,27.301149 
	C653.765991,33.892868 649.376221,38.519524 641.263855,38.113331 
	C632.194275,37.659218 627.291443,32.156799 624.152222,23.401167 
	C504.826233,81.853882 385.823364,140.148315 266.820496,198.442749 
	C266.839478,198.724243 266.858429,199.005737 266.877411,199.287231 
	C397.751587,199.287231 528.625793,199.287231 660.500000,199.286743 
M759.500000,235.989914 
	C797.474365,236.280853 835.448669,236.582779 873.423096,236.859955 
	C920.729309,237.205215 968.036011,237.489487 1015.341858,237.878082 
	C1046.651733,238.135284 1077.960571,238.530365 1109.269775,238.862137 
	C1148.742065,239.280411 1188.214478,239.700546 1227.686890,240.102188 
	C1229.307495,240.118683 1230.930054,239.955490 1232.909668,239.858459 
	C1232.909668,229.518158 1232.909668,219.486816 1232.909668,209.345596 
	C838.833740,207.515594 445.115387,202.995728 51.937012,205.892349 
	C51.937012,216.327637 51.937012,226.036041 51.937012,235.989914 
	C288.023163,235.989914 523.261597,235.989914 759.500000,235.989914 
M335.500000,1013.887207 
	C240.780670,1013.983521 146.061325,1014.079834 51.860870,1014.175659 
	C51.860870,1024.975708 51.860870,1034.386597 51.860870,1044.290894 
	C54.410172,1044.290894 56.201591,1044.293945 57.993000,1044.290527 
	C87.823669,1044.232544 117.654381,1044.191650 147.484985,1044.111694 
	C246.800781,1043.845703 346.116425,1043.477417 445.432373,1043.332642 
	C487.082916,1043.271851 528.734192,1043.655396 570.385071,1043.868530 
	C632.365173,1044.185791 694.345215,1044.515137 756.325195,1044.869141 
	C810.638428,1045.179443 864.951599,1045.498535 919.264404,1045.874756 
	C959.576782,1046.153931 999.888611,1046.521240 1040.200562,1046.866699 
	C1082.680176,1047.230713 1125.159790,1047.575195 1167.638672,1048.014038 
	C1181.787720,1048.160400 1195.933105,1048.623657 1210.081909,1048.841553 
	C1217.672119,1048.958618 1225.265503,1048.862427 1232.955200,1048.862427 
	C1232.955200,1038.275391 1232.955200,1028.353516 1232.955200,1018.158203 
	C1231.180786,1018.055908 1229.719604,1017.904419 1228.257690,1017.897156 
	C1175.774780,1017.635681 1123.291504,1017.431641 1070.808960,1017.124695 
	C1024.661499,1016.854797 978.514343,1016.495483 932.367432,1016.131409 
	C894.720642,1015.834351 857.074890,1015.368164 819.427734,1015.160034 
	C745.615662,1014.751953 671.803162,1014.351807 597.990295,1014.169006 
	C510.827148,1013.953125 423.663452,1013.970764 335.500000,1013.887207 
M12.009792,215.504425 
	C12.052919,223.491348 12.203088,231.479843 12.087446,239.464462 
	C12.039986,242.741379 13.516654,243.976761 16.521975,243.983871 
	C18.186138,243.987793 19.863232,243.855362 21.511826,244.016449 
	C25.106548,244.367706 26.240505,242.666306 26.027691,239.302200 
	C25.838753,236.315491 25.988056,233.307404 25.988056,230.308746 
	C26.554956,230.297760 27.121859,230.286789 27.688759,230.275803 
	C27.688759,234.380875 27.688759,238.485962 27.688759,242.761124 
	C30.560457,242.761124 32.592243,242.761124 35.271385,242.761124 
	C35.271385,231.222046 35.271385,220.023331 35.271385,208.824631 
	C35.801285,208.821884 36.331184,208.819122 36.861084,208.816376 
	C36.861084,220.106293 36.861084,231.396210 36.861084,242.408264 
	C42.266983,243.807465 44.109646,242.404877 43.956123,237.490692 
	C43.670532,228.349228 43.846600,219.188065 44.038361,210.039459 
	C44.119354,206.175400 44.726658,202.322403 45.120564,198.193665 
	C36.085693,198.193665 27.768700,197.775345 19.514439,198.315552 
	C11.810686,198.819733 11.862522,199.267395 12.057991,207.024155 
	C12.120797,209.516403 12.030524,212.012527 12.009792,215.504425 
M1239.137207,219.592422 
	C1239.137207,227.302383 1239.137207,235.012360 1239.137207,242.777557 
	C1242.278564,242.777557 1244.015503,242.777557 1246.497803,242.777557 
	C1246.497803,231.481094 1246.497803,220.495621 1246.497803,209.510147 
	C1247.109619,209.506332 1247.721436,209.502518 1248.333252,209.498703 
	C1248.333252,220.559830 1248.333252,231.620941 1248.333252,242.408096 
	C1252.544678,243.951111 1254.028687,242.986893 1253.946655,239.526169 
	C1253.857788,235.786545 1253.926514,232.043167 1253.926514,228.301437 
	C1254.533325,228.316193 1255.140137,228.330963 1255.746948,228.345734 
	C1256.137085,233.166611 1256.527222,237.987473 1256.898438,242.575653 
	C1261.952393,242.575653 1266.339111,242.575653 1271.398438,242.575653 
	C1271.398438,227.368042 1271.398438,212.692856 1271.398438,198.533920 
	C1260.970215,198.533920 1250.740356,198.533920 1240.214233,198.533920 
	C1239.828003,205.744598 1239.483032,212.183044 1239.137207,219.592422 
M25.323406,1051.009888 
	C28.121347,1051.415405 30.919287,1051.820923 34.399368,1052.325317 
	C34.399368,1036.686279 34.399368,1021.983032 34.399368,1007.353638 
	C27.229414,1007.353638 20.319569,1007.353638 12.147939,1007.353638 
	C12.147939,1021.424377 12.071185,1035.034790 12.288877,1048.640625 
	C12.306935,1049.769165 14.147488,1051.478394 15.440018,1051.834961 
	C17.411737,1052.379028 19.644310,1051.977539 22.104248,1051.977539 
	C22.515169,1046.769653 22.893217,1041.978394 23.271265,1037.187134 
	C23.903103,1037.196533 24.534939,1037.205811 25.166777,1037.215210 
	C25.166777,1041.512817 25.166777,1045.810547 25.323406,1051.009888 
M1250.866333,1044.280518 
	C1250.718384,1046.715210 1250.570435,1049.149902 1250.420044,1051.625244 
	C1253.428345,1051.625244 1256.135498,1051.625244 1258.809326,1051.625244 
	C1259.133911,1046.972778 1259.429565,1042.733887 1259.725342,1038.495117 
	C1260.293213,1038.512817 1260.861206,1038.530518 1261.429077,1038.548218 
	C1261.681519,1042.867188 1261.933960,1047.186279 1262.219360,1052.069580 
	C1265.366455,1051.662476 1268.046631,1051.315674 1271.380249,1050.884399 
	C1271.380249,1035.771851 1271.380249,1021.086060 1271.380249,1006.239563 
	C1264.678345,1006.561340 1258.095337,1006.877441 1250.884155,1007.223694 
	C1250.884155,1019.463074 1250.884155,1031.395752 1250.866333,1044.280518 
M1239.746948,1015.139343 
	C1239.540649,1025.099609 1239.197754,1035.059570 1239.172607,1045.020264 
	C1239.153564,1052.568848 1239.748779,1052.881470 1248.271240,1051.325806 
	C1248.271240,1036.752686 1248.271240,1022.062439 1248.271240,1007.429321 
	C1245.571289,1007.429321 1243.001953,1007.429321 1239.843628,1007.429321 
	C1239.843628,1009.973206 1239.843628,1012.102234 1239.746948,1015.139343 
M45.006634,1008.817871 
	C45.039154,1004.657410 41.842152,1006.024292 40.030357,1006.408203 
	C38.866470,1006.654785 37.286217,1008.648438 37.248497,1009.899902 
	C36.988628,1018.522339 37.082291,1027.155518 37.069908,1035.785278 
	C37.062382,1041.031250 37.068523,1046.277222 37.068523,1051.435791 
	C42.268604,1052.612671 44.032162,1051.181396 44.014206,1046.036987 
	C43.971981,1033.940430 44.628105,1021.841370 45.006634,1008.817871 
z"/>
<path fill="#FFFFFF" opacity="1.000000" stroke="none" 
	d="
M1280.000000,1040.531372 
	C1279.671509,1039.638916 1279.114746,1038.288574 1279.051147,1036.915161 
	C1278.581665,1026.774414 1278.099609,1016.631531 1277.866577,1006.483704 
	C1277.781250,1002.768799 1276.215576,1000.671814 1272.630371,1000.627991 
	C1261.531982,1000.492432 1250.429077,1000.441467 1239.332275,1000.622986 
	C1235.399902,1000.687256 1233.281006,1002.929626 1233.813110,1007.197876 
	C1233.991211,1008.625916 1233.680054,1010.115051 1233.579834,1011.789246 
	C1230.718628,1011.789246 1228.149658,1011.789246 1226.408936,1011.789246 
	C1227.025146,756.465210 1227.640625,501.455780 1228.257446,245.866669 
	C1230.075928,246.067963 1232.095947,245.684204 1232.780762,246.467575 
	C1236.733521,250.989487 1242.187012,250.472519 1247.156616,250.763794 
	C1255.292847,251.240662 1263.490479,251.241379 1271.627686,250.802979 
	C1274.257446,250.661301 1276.778809,248.509857 1279.674805,247.138885 
	C1280.000000,511.354248 1280.000000,775.708496 1280.000000,1040.531372 
z"/>
<path fill="#FDFDFF" opacity="1.000000" stroke="none" 
	d="
M1219.861084,340.919556 
	C1219.570557,431.882782 1219.280518,522.357971 1218.989136,612.833191 
	C1218.949951,624.997864 1218.889648,637.162476 1218.863403,649.327209 
	C1218.667969,739.804932 1218.496460,830.282654 1218.273926,920.760254 
	C1218.220703,942.421814 1218.089966,964.084045 1217.817749,985.743713 
	C1217.711182,994.212524 1217.117554,1002.675110 1216.714111,1011.861389 
	C1209.070801,1011.861389 1201.489258,1011.949280 1193.910522,1011.843445 
	C1177.262329,1011.610962 1160.616699,1011.171509 1143.968018,1011.011108 
	C1098.658691,1010.574463 1053.348633,1010.206848 1008.038330,1009.871887 
	C957.895142,1009.501099 907.751770,1009.014038 857.607788,1008.897156 
	C694.138062,1008.516174 530.668091,1008.257690 367.198059,1008.000671 
	C298.371216,1007.892456 229.543915,1007.992432 160.717255,1007.819946 
	C133.905930,1007.752747 107.095276,1007.232910 80.285706,1006.826904 
	C75.674072,1006.757019 71.069466,1006.222107 65.606926,1005.842712 
	C65.606926,751.583618 65.606926,497.584015 65.606926,242.260620 
	C449.879303,243.230453 834.547485,244.201279 1219.861084,245.173737 
	C1219.861084,277.595093 1219.861084,309.013306 1219.861084,340.919556 
M96.347992,986.803345 
	C98.791161,987.130554 101.229279,987.694275 103.678314,987.746521 
	C119.489143,988.084045 135.301498,988.392578 151.114944,988.555786 
	C188.417160,988.940857 225.720703,989.199097 263.022888,989.586975 
	C287.830719,989.844849 312.636200,990.371765 337.444366,990.540222 
	C377.589783,990.812805 417.736542,990.894043 457.882782,991.029968 
	C459.167084,991.034302 460.452362,990.752014 461.737183,990.603333 
	C461.686859,989.987854 461.636536,989.372375 461.586182,988.756897 
	C351.138214,987.761536 240.690216,986.766235 130.197678,985.329895 
	C130.222839,985.036682 130.268478,984.746643 131.222748,984.396973 
	C141.713303,984.508667 152.203827,984.715576 162.694412,984.718262 
	C501.752502,984.806152 840.810547,984.875610 1179.868652,984.923950 
	C1182.851685,984.924377 1185.833252,984.494995 1188.817993,984.455322 
	C1191.783081,984.415833 1192.884399,982.990662 1192.972290,980.128967 
	C1193.166260,973.811462 1193.771851,967.501953 1193.832153,961.185608 
	C1194.232910,919.224304 1194.645386,877.262573 1194.833496,835.300049 
	C1194.996338,799.007935 1194.877441,762.714600 1194.847412,726.421814 
	C1194.845093,723.604248 1194.418335,720.786377 1194.429321,717.969543 
	C1194.536011,690.662537 1194.693970,663.355774 1194.937256,635.204163 
	C1194.911865,633.788696 1194.886353,632.373169 1194.965454,630.031006 
	C1194.974976,603.688660 1194.984497,577.346375 1195.098999,550.202698 
	C1195.054565,549.128113 1195.010132,548.053589 1195.073975,546.049377 
	C1195.090210,531.240601 1195.074219,516.431702 1195.132935,501.623077 
	C1195.179810,489.826630 1195.317749,478.030548 1195.735840,465.372467 
	C1195.632690,464.171173 1195.529541,462.969879 1195.602173,460.882812 
	C1195.630859,434.304718 1195.659546,407.726654 1195.883789,380.304474 
	C1195.828369,379.157349 1195.773071,378.010223 1195.826660,375.950195 
	C1195.882690,341.453888 1195.879761,306.957275 1196.077637,272.461792 
	C1196.099609,268.624756 1195.009399,266.984436 1191.125977,266.931458 
	C1186.974976,266.874847 1182.828857,266.160858 1178.681885,266.172394 
	C1133.539795,266.297913 1088.397339,266.420227 1043.256348,266.733124 
	C1018.280151,266.906250 993.307312,267.540497 968.331238,267.783691 
	C930.348572,268.153625 892.364319,268.602936 854.380798,268.596619 
	C753.396790,268.579773 652.412781,268.328461 551.428772,268.189484 
	C515.265015,268.139740 479.100769,268.243591 442.937439,268.102844 
	C377.959106,267.849915 312.981537,267.393005 248.003174,267.159637 
	C201.348801,266.992096 154.693497,266.993561 108.038864,267.070221 
	C101.455414,267.081024 94.873367,267.948547 88.343018,268.415802 
	C88.343018,507.488739 88.343018,745.885376 88.343018,984.669495 
	C91.147171,984.669495 93.613922,984.669495 96.083382,985.372742 
	C96.097855,985.605957 96.112335,985.839111 96.347992,986.803345 
M837.500000,992.804565 
	C853.158752,992.804565 868.817444,992.804565 884.476196,992.804565 
	C884.465698,991.965881 884.455200,991.127258 884.444641,990.288574 
	C752.024048,990.288574 619.603455,990.288574 487.182831,990.288574 
	C487.178375,990.747681 487.173920,991.206726 487.169464,991.665833 
	C603.612976,992.045288 720.056519,992.424744 837.500000,992.804565 
M1203.614380,650.366699 
	C1203.425415,528.456177 1204.975586,406.544159 1204.757324,284.633698 
	C1203.876221,284.633240 1202.995117,284.632812 1202.114014,284.632355 
	C1202.114014,411.239502 1202.114014,537.846619 1202.114014,664.453796 
	C1202.347290,664.470154 1202.580566,664.486511 1202.813721,664.502869 
	C1203.080444,660.110718 1203.347046,655.718628 1203.614380,650.366699 
M416.953003,261.798340 
	C474.578094,262.062439 532.203430,262.573242 589.828186,262.521088 
	C647.163635,262.469208 704.509827,263.439423 761.837769,262.052551 
	C754.770264,259.003693 416.845642,258.610443 412.917084,261.289520 
	C414.242859,261.502472 415.157227,261.649353 416.953003,261.798340 
M842.500671,260.068817 
	C832.301636,260.170563 822.102600,260.272308 811.903625,260.374054 
	C811.912048,260.973633 811.920471,261.573212 811.928955,262.172791 
	C813.667358,262.172791 815.405823,262.185089 817.144104,262.170990 
	C857.941406,261.840271 898.739319,261.560364 939.535828,261.150635 
	C959.508118,260.950043 979.477844,260.494354 999.449036,260.177368 
	C1021.420288,259.828644 1043.390991,259.370270 1065.363647,259.208252 
	C1091.517578,259.015381 1117.673706,258.993774 1143.828369,259.079224 
	C1159.303467,259.129761 1174.777344,259.548920 1190.252319,259.751617 
	C1192.318970,259.778717 1194.389526,259.506836 1196.458252,259.373352 
	C1196.421021,258.593079 1196.383789,257.812836 1196.346558,257.032562 
	C1078.721924,255.921280 961.113831,258.543182 842.500671,260.068817 
M187.666229,260.606537 
	C250.975922,260.606537 314.285614,260.606537 377.595306,260.606537 
	C375.963776,259.658325 374.247955,259.235413 372.528748,259.221100 
	C336.230469,258.918640 299.930969,258.743622 263.633545,258.366608 
	C241.496445,258.136658 219.362137,257.273315 197.227112,257.293793 
	C163.267487,257.325256 129.308197,257.862244 95.349312,258.233093 
	C93.647224,258.251678 91.950150,258.728790 90.250748,258.992401 
	C90.284996,259.530121 90.319244,260.067841 90.353500,260.605560 
	C122.472649,260.605560 154.591797,260.605560 187.666229,260.606537 
M1050.500000,990.955994 
	C1034.679565,990.955994 1018.859192,990.972412 1003.038818,990.951233 
	C987.385925,990.930298 971.733093,990.855103 956.080200,990.833862 
	C940.518555,990.812744 924.956848,990.829224 909.395203,990.829224 
	C909.399536,991.556885 909.403931,992.284607 909.408325,993.012268 
	C1001.472534,992.391724 1093.530640,994.682312 1185.595825,993.602112 
	C1185.599365,992.720032 1185.602783,991.838013 1185.606323,990.955933 
	C1140.904175,990.955933 1096.202148,990.955933 1050.500000,990.955994 
M80.984680,533.500000 
	C80.984680,620.846436 80.984680,708.192932 80.984680,795.539368 
	C81.549080,795.536865 82.113480,795.534363 82.677879,795.531799 
	C82.677879,684.462646 82.677879,573.393433 82.677879,462.324219 
	C82.113472,462.323364 81.549072,462.322479 80.984665,462.321625 
	C80.984665,485.714417 80.984665,509.107208 80.984680,533.500000 
M1200.848877,737.498413 
	C1200.634888,822.442749 1200.421021,907.387146 1200.209839,991.208435 
	C1202.963989,986.160583 1205.246460,711.949890 1200.868286,703.457825 
	C1200.868286,714.471252 1200.868286,725.484741 1200.848877,737.498413 
M80.154770,891.500000 
	C80.443909,920.460083 80.712479,949.420410 81.058540,978.379822 
	C81.088455,980.882874 81.630730,983.379700 81.934998,985.879456 
	C82.152870,985.790527 82.370735,985.701660 82.588608,985.612732 
	C82.588608,931.550903 82.588608,877.489014 82.588608,823.427185 
	C81.777428,823.420837 80.966248,823.414429 80.155067,823.408081 
	C80.155067,845.772034 80.155067,868.136047 80.154770,891.500000 
M82.956314,357.500000 
	C82.907448,349.501740 82.865486,341.503448 82.807777,333.505249 
	C82.748863,325.341370 82.622284,317.177582 82.621735,309.013763 
	C82.621201,301.016449 82.863113,293.017792 82.775459,285.022156 
	C82.688957,277.131958 82.322952,269.244812 82.079582,261.356293 
	C78.633118,269.585693 79.874168,430.897491 82.956238,435.170135 
	C82.956238,409.613434 82.956238,384.056702 82.956314,357.500000 
z"/>
<path fill="#FFFFFF" opacity="1.000000" stroke="none" 
	d="
M660.000000,199.286987 
	C528.625793,199.287231 397.751587,199.287231 266.877411,199.287231 
	C266.858429,199.005737 266.839478,198.724243 266.820496,198.442749 
	C385.823364,140.148315 504.826233,81.853882 624.152222,23.401167 
	C627.291443,32.156799 632.194275,37.659218 641.263855,38.113331 
	C649.376221,38.519524 653.765991,33.892868 656.186035,27.301149 
	C781.571777,85.275780 906.690857,143.127106 1031.117798,200.658386 
	C908.155640,200.203308 784.327820,199.745026 660.000000,199.286987 
z"/>
<path fill="#FDFDFF" opacity="1.000000" stroke="none" 
	d="
M759.000000,235.989914 
	C523.261597,235.989914 288.023163,235.989914 51.937012,235.989914 
	C51.937012,226.036041 51.937012,216.327637 51.937012,205.892349 
	C445.115387,202.995728 838.833740,207.515594 1232.909668,209.345596 
	C1232.909668,219.486816 1232.909668,229.518158 1232.909668,239.858459 
	C1230.930054,239.955490 1229.307495,240.118683 1227.686890,240.102188 
	C1188.214478,239.700546 1148.742065,239.280411 1109.269775,238.862137 
	C1077.960571,238.530365 1046.651733,238.135284 1015.341858,237.878082 
	C968.036011,237.489487 920.729309,237.205215 873.423096,236.859955 
	C835.448669,236.582779 797.474365,236.280853 759.000000,235.989914 
z"/>
<path fill="#FDFDFF" opacity="1.000000" stroke="none" 
	d="
M336.000000,1013.887146 
	C423.663452,1013.970764 510.827148,1013.953125 597.990295,1014.169006 
	C671.803162,1014.351807 745.615662,1014.751953 819.427734,1015.160034 
	C857.074890,1015.368164 894.720642,1015.834351 932.367432,1016.131409 
	C978.514343,1016.495483 1024.661499,1016.854797 1070.808960,1017.124695 
	C1123.291504,1017.431641 1175.774780,1017.635681 1228.257690,1017.897156 
	C1229.719604,1017.904419 1231.180786,1018.055908 1232.955200,1018.158203 
	C1232.955200,1028.353516 1232.955200,1038.275391 1232.955200,1048.862427 
	C1225.265503,1048.862427 1217.672119,1048.958618 1210.081909,1048.841553 
	C1195.933105,1048.623657 1181.787720,1048.160400 1167.638672,1048.014038 
	C1125.159790,1047.575195 1082.680176,1047.230713 1040.200562,1046.866699 
	C999.888611,1046.521240 959.576782,1046.153931 919.264404,1045.874756 
	C864.951599,1045.498535 810.638428,1045.179443 756.325195,1044.869141 
	C694.345215,1044.515137 632.365173,1044.185791 570.385071,1043.868530 
	C528.734192,1043.655396 487.082916,1043.271851 445.432373,1043.332642 
	C346.116425,1043.477417 246.800781,1043.845703 147.484985,1044.111694 
	C117.654381,1044.191650 87.823669,1044.232544 57.993000,1044.290527 
	C56.201591,1044.293945 54.410172,1044.290894 51.860870,1044.290894 
	C51.860870,1034.386597 51.860870,1024.975708 51.860870,1014.175659 
	C146.061325,1014.079834 240.780670,1013.983521 336.000000,1013.887146 
z"/>
<path fill="#FDFDFF" opacity="1.000000" stroke="none" 
	d="
M12.010038,215.005646 
	C12.030524,212.012527 12.120797,209.516403 12.057991,207.024155 
	C11.862522,199.267395 11.810686,198.819733 19.514439,198.315552 
	C27.768700,197.775345 36.085693,198.193665 45.120564,198.193665 
	C44.726658,202.322403 44.119354,206.175400 44.038361,210.039459 
	C43.846600,219.188065 43.670532,228.349228 43.956123,237.490692 
	C44.109646,242.404877 42.266983,243.807465 36.861084,242.408264 
	C36.861084,231.396210 36.861084,220.106293 36.861084,208.816376 
	C36.331184,208.819122 35.801285,208.821884 35.271385,208.824631 
	C35.271385,220.023331 35.271385,231.222046 35.271385,242.761124 
	C32.592243,242.761124 30.560457,242.761124 27.688759,242.761124 
	C27.688759,238.485962 27.688759,234.380875 27.688759,230.275803 
	C27.121859,230.286789 26.554956,230.297760 25.988056,230.308746 
	C25.988056,233.307404 25.838753,236.315491 26.027691,239.302200 
	C26.240505,242.666306 25.106548,244.367706 21.511826,244.016449 
	C19.863232,243.855362 18.186138,243.987793 16.521975,243.983871 
	C13.516654,243.976761 12.039986,242.741379 12.087446,239.464462 
	C12.203088,231.479843 12.052919,223.491348 12.010038,215.005646 
z"/>
<path fill="#FDFDFF" opacity="1.000000" stroke="none" 
	d="
M1239.137695,219.106964 
	C1239.483032,212.183044 1239.828003,205.744598 1240.214233,198.533920 
	C1250.740356,198.533920 1260.970215,198.533920 1271.398438,198.533920 
	C1271.398438,212.692856 1271.398438,227.368042 1271.398438,242.575653 
	C1266.339111,242.575653 1261.952393,242.575653 1256.898438,242.575653 
	C1256.527222,237.987473 1256.137085,233.166611 1255.746948,228.345734 
	C1255.140137,228.330963 1254.533325,228.316193 1253.926514,228.301437 
	C1253.926514,232.043167 1253.857788,235.786545 1253.946655,239.526169 
	C1254.028687,242.986893 1252.544678,243.951111 1248.333252,242.408096 
	C1248.333252,231.620941 1248.333252,220.559830 1248.333252,209.498703 
	C1247.721436,209.502518 1247.109619,209.506332 1246.497803,209.510147 
	C1246.497803,220.495621 1246.497803,231.481094 1246.497803,242.777557 
	C1244.015503,242.777557 1242.278564,242.777557 1239.137207,242.777557 
	C1239.137207,235.012360 1239.137207,227.302383 1239.137695,219.106964 
z"/>
<path fill="#FDFDFF" opacity="1.000000" stroke="none" 
	d="
M25.245090,1050.559082 
	C25.166777,1045.810547 25.166777,1041.512817 25.166777,1037.215210 
	C24.534939,1037.205811 23.903103,1037.196533 23.271265,1037.187134 
	C22.893217,1041.978394 22.515169,1046.769653 22.104248,1051.977539 
	C19.644310,1051.977539 17.411737,1052.379028 15.440018,1051.834961 
	C14.147488,1051.478394 12.306935,1049.769165 12.288877,1048.640625 
	C12.071185,1035.034790 12.147939,1021.424377 12.147939,1007.353638 
	C20.319569,1007.353638 27.229414,1007.353638 34.399368,1007.353638 
	C34.399368,1021.983032 34.399368,1036.686279 34.399368,1052.325317 
	C30.919287,1051.820923 28.121347,1051.415405 25.245090,1050.559082 
z"/>
<path fill="#FDFDFF" opacity="1.000000" stroke="none" 
	d="
M1250.875244,1043.804443 
	C1250.884155,1031.395752 1250.884155,1019.463074 1250.884155,1007.223694 
	C1258.095337,1006.877441 1264.678345,1006.561340 1271.380249,1006.239563 
	C1271.380249,1021.086060 1271.380249,1035.771851 1271.380249,1050.884399 
	C1268.046631,1051.315674 1265.366455,1051.662476 1262.219360,1052.069580 
	C1261.933960,1047.186279 1261.681519,1042.867188 1261.429077,1038.548218 
	C1260.861206,1038.530518 1260.293213,1038.512817 1259.725342,1038.495117 
	C1259.429565,1042.733887 1259.133911,1046.972778 1258.809326,1051.625244 
	C1256.135498,1051.625244 1253.428345,1051.625244 1250.420044,1051.625244 
	C1250.570435,1049.149902 1250.718384,1046.715210 1250.875244,1043.804443 
z"/>
<path fill="#F8F9FF" opacity="1.000000" stroke="none" 
	d="
M1239.795288,1014.685303 
	C1239.843628,1012.102234 1239.843628,1009.973206 1239.843628,1007.429321 
	C1243.001953,1007.429321 1245.571289,1007.429321 1248.271240,1007.429321 
	C1248.271240,1022.062439 1248.271240,1036.752686 1248.271240,1051.325806 
	C1239.748779,1052.881470 1239.153564,1052.568848 1239.172607,1045.020264 
	C1239.197754,1035.059570 1239.540649,1025.099609 1239.795288,1014.685303 
z"/>
<path fill="#F8F9FF" opacity="1.000000" stroke="none" 
	d="
M45.004143,1009.280640 
	C44.628105,1021.841370 43.971981,1033.940430 44.014206,1046.036987 
	C44.032162,1051.181396 42.268604,1052.612671 37.068523,1051.435791 
	C37.068523,1046.277222 37.062382,1041.031250 37.069908,1035.785278 
	C37.082291,1027.155518 36.988628,1018.522339 37.248497,1009.899902 
	C37.286217,1008.648438 38.866470,1006.654785 40.030357,1006.408203 
	C41.842152,1006.024292 45.039154,1004.657410 45.004143,1009.280640 
z"/>
<path fill="#707BFB" opacity="1.000000" stroke="none" 
	d="
M96.080673,984.669495 
	C93.613922,984.669495 91.147171,984.669495 88.343018,984.669495 
	C88.343018,745.885376 88.343018,507.488739 88.343018,268.415802 
	C94.873367,267.948547 101.455414,267.081024 108.038864,267.070221 
	C154.693497,266.993561 201.348801,266.992096 248.003174,267.159637 
	C312.981537,267.393005 377.959106,267.849915 442.937439,268.102844 
	C479.100769,268.243591 515.265015,268.139740 551.428772,268.189484 
	C652.412781,268.328461 753.396790,268.579773 854.380798,268.596619 
	C892.364319,268.602936 930.348572,268.153625 968.331238,267.783691 
	C993.307312,267.540497 1018.280151,266.906250 1043.256348,266.733124 
	C1088.397339,266.420227 1133.539795,266.297913 1178.681885,266.172394 
	C1182.828857,266.160858 1186.974976,266.874847 1191.125977,266.931458 
	C1195.009399,266.984436 1196.099609,268.624756 1196.077637,272.461792 
	C1195.879761,306.957275 1195.882690,341.453888 1195.352783,376.448425 
	C1193.570312,376.974091 1192.197876,376.767212 1190.972900,377.100983 
	C1189.941284,377.382080 1189.080811,378.291718 1188.144653,378.923096 
	C1189.024536,379.612640 1189.816284,380.671509 1190.804443,380.906860 
	C1192.363037,381.278137 1194.053589,381.096283 1195.688232,381.148560 
	C1195.659546,407.726654 1195.630859,434.304718 1195.126587,461.402527 
	C1193.506226,461.954285 1192.269653,461.725586 1191.241455,462.088287 
	C1190.108521,462.487915 1189.167236,463.430695 1188.142334,464.136810 
	C1189.098633,464.749390 1189.983887,465.637573 1191.028687,465.906952 
	C1192.426147,466.267242 1193.947266,466.147766 1195.415283,466.234314 
	C1195.317749,478.030548 1195.179810,489.826630 1195.132935,501.623077 
	C1195.074219,516.431702 1195.090210,531.240601 1194.583984,546.519653 
	C1192.109497,547.725586 1190.124878,548.461304 1188.140381,549.197021 
	C1190.097534,549.793518 1192.051636,550.401062 1194.015381,550.975037 
	C1194.318481,551.063599 1194.666626,550.998230 1194.993896,551.004028 
	C1194.984497,577.346375 1194.974976,603.688660 1194.483521,630.513672 
	C1191.938843,631.729675 1188.022949,629.205811 1188.146851,633.682556 
	C1188.258667,637.722839 1191.896362,635.305908 1193.871338,636.003113 
	C1194.162354,636.105896 1194.513916,636.037842 1194.837402,636.048889 
	C1194.693970,663.355774 1194.536011,690.662537 1194.429321,717.969543 
	C1194.418335,720.786377 1194.845093,723.604248 1194.847412,726.421814 
	C1194.877441,762.714600 1194.996338,799.007935 1194.833496,835.300049 
	C1194.645386,877.262573 1194.232910,919.224304 1193.832153,961.185608 
	C1193.771851,967.501953 1193.166260,973.811462 1192.972290,980.128967 
	C1192.884399,982.990662 1191.783081,984.415833 1188.817993,984.455322 
	C1185.833252,984.494995 1182.851685,984.924377 1179.868652,984.923950 
	C840.810547,984.875610 501.752502,984.806152 162.694412,984.718262 
	C152.203827,984.715576 141.713303,984.508667 130.298462,984.272461 
	C118.276329,984.321777 107.178505,984.495667 96.080673,984.669495 
z"/>
<path fill="#8790FC" opacity="1.000000" stroke="none" 
	d="
M837.000000,992.804382 
	C720.056519,992.424744 603.612976,992.045288 487.169464,991.665833 
	C487.173920,991.206726 487.178375,990.747681 487.182831,990.288574 
	C619.603455,990.288574 752.024048,990.288574 884.444641,990.288574 
	C884.455200,991.127258 884.465698,991.965881 884.476196,992.804565 
	C868.817444,992.804565 853.158752,992.804565 837.000000,992.804382 
z"/>
<path fill="#8992FC" opacity="1.000000" stroke="none" 
	d="
M1203.614014,650.846619 
	C1203.347046,655.718628 1203.080444,660.110718 1202.813721,664.502869 
	C1202.580566,664.486511 1202.347290,664.470154 1202.114014,664.453796 
	C1202.114014,537.846619 1202.114014,411.239502 1202.114014,284.632355 
	C1202.995117,284.632812 1203.876221,284.633240 1204.757324,284.633698 
	C1204.975586,406.544159 1203.425415,528.456177 1203.614014,650.846619 
z"/>
<path fill="#868FFC" opacity="1.000000" stroke="none" 
	d="
M416.512299,261.797272 
	C415.157227,261.649353 414.242859,261.502472 412.917084,261.289520 
	C416.845642,258.610443 754.770264,259.003693 761.837769,262.052551 
	C704.509827,263.439423 647.163635,262.469208 589.828186,262.521088 
	C532.203430,262.573242 474.578094,262.062439 416.512299,261.797272 
z"/>
<path fill="#838DFC" opacity="1.000000" stroke="none" 
	d="
M130.242218,985.770874 
	C240.690216,986.766235 351.138214,987.761536 461.586182,988.756897 
	C461.636536,989.372375 461.686859,989.987854 461.737183,990.603333 
	C460.452362,990.752014 459.167084,991.034302 457.882782,991.029968 
	C417.736542,990.894043 377.589783,990.812805 337.444366,990.540222 
	C312.636200,990.371765 287.830719,989.844849 263.022888,989.586975 
	C225.720703,989.199097 188.417160,988.940857 151.114944,988.555786 
	C135.301498,988.392578 119.489143,988.084045 103.678314,987.746521 
	C101.229279,987.694275 98.791161,987.130554 96.694916,986.407959 
	C108.108635,985.932007 119.175423,985.851440 130.242218,985.770874 
z"/>
<path fill="#818BFB" opacity="1.000000" stroke="none" 
	d="
M843.000793,260.067383 
	C961.113831,258.543182 1078.721924,255.921280 1196.346558,257.032562 
	C1196.383789,257.812836 1196.421021,258.593079 1196.458252,259.373352 
	C1194.389526,259.506836 1192.318970,259.778717 1190.252319,259.751617 
	C1174.777344,259.548920 1159.303467,259.129761 1143.828369,259.079224 
	C1117.673706,258.993774 1091.517578,259.015381 1065.363647,259.208252 
	C1043.390991,259.370270 1021.420288,259.828644 999.449036,260.177368 
	C979.477844,260.494354 959.508118,260.950043 939.535828,261.150635 
	C898.739319,261.560364 857.941406,261.840271 817.144104,262.170990 
	C815.405823,262.185089 813.667358,262.172791 811.928955,262.172791 
	C811.920471,261.573212 811.912048,260.973633 811.903625,260.374054 
	C822.102600,260.272308 832.301636,260.170563 843.000793,260.067383 
z"/>
<path fill="#8891FC" opacity="1.000000" stroke="none" 
	d="
M187.188599,260.606049 
	C154.591797,260.605560 122.472649,260.605560 90.353500,260.605560 
	C90.319244,260.067841 90.284996,259.530121 90.250748,258.992401 
	C91.950150,258.728790 93.647224,258.251678 95.349312,258.233093 
	C129.308197,257.862244 163.267487,257.325256 197.227112,257.293793 
	C219.362137,257.273315 241.496445,258.136658 263.633545,258.366608 
	C299.930969,258.743622 336.230469,258.918640 372.528748,259.221100 
	C374.247955,259.235413 375.963776,259.658325 377.595306,260.606537 
	C314.285614,260.606537 250.975922,260.606537 187.188599,260.606049 
z"/>
<path fill="#818BFB" opacity="1.000000" stroke="none" 
	d="
M1051.000000,990.955933 
	C1096.202148,990.955933 1140.904175,990.955933 1185.606323,990.955933 
	C1185.602783,991.838013 1185.599365,992.720032 1185.595825,993.602112 
	C1093.530640,994.682312 1001.472534,992.391724 909.408325,993.012268 
	C909.403931,992.284607 909.399536,991.556885 909.395203,990.829224 
	C924.956848,990.829224 940.518555,990.812744 956.080200,990.833862 
	C971.733093,990.855103 987.385925,990.930298 1003.038818,990.951233 
	C1018.859192,990.972412 1034.679565,990.955994 1051.000000,990.955933 
z"/>
<path fill="#7781FB" opacity="1.000000" stroke="none" 
	d="
M80.984673,533.000000 
	C80.984665,509.107208 80.984665,485.714417 80.984665,462.321625 
	C81.549072,462.322479 82.113472,462.323364 82.677879,462.324219 
	C82.677879,573.393433 82.677879,684.462646 82.677879,795.531799 
	C82.113480,795.534363 81.549080,795.536865 80.984680,795.539368 
	C80.984680,708.192932 80.984680,620.846436 80.984673,533.000000 
z"/>
<path fill="#7B85FB" opacity="1.000000" stroke="none" 
	d="
M1200.858643,736.998291 
	C1200.868286,725.484741 1200.868286,714.471252 1200.868286,703.457825 
	C1205.246460,711.949890 1202.963989,986.160583 1200.209839,991.208435 
	C1200.421021,907.387146 1200.634888,822.442749 1200.858643,736.998291 
z"/>
<path fill="#8F98FC" opacity="1.000000" stroke="none" 
	d="
M80.154922,891.000000 
	C80.155067,868.136047 80.155067,845.772034 80.155067,823.408081 
	C80.966248,823.414429 81.777428,823.420837 82.588608,823.427185 
	C82.588608,877.489014 82.588608,931.550903 82.588608,985.612732 
	C82.370735,985.701660 82.152870,985.790527 81.934998,985.879456 
	C81.630730,983.379700 81.088455,980.882874 81.058540,978.379822 
	C80.712479,949.420410 80.443909,920.460083 80.154922,891.000000 
z"/>
<path fill="#8891FC" opacity="1.000000" stroke="none" 
	d="
M82.956276,358.000000 
	C82.956238,384.056702 82.956238,409.613434 82.956238,435.170135 
	C79.874168,430.897491 78.633118,269.585693 82.079582,261.356293 
	C82.322952,269.244812 82.688957,277.131958 82.775459,285.022156 
	C82.863113,293.017792 82.621201,301.016449 82.621735,309.013763 
	C82.622284,317.177582 82.748863,325.341370 82.807777,333.505249 
	C82.865486,341.503448 82.907448,349.501740 82.956276,358.000000 
z"/>
<path fill="#B1B6FD" opacity="1.000000" stroke="none" 
	d="
M130.219940,985.550415 
	C119.175423,985.851440 108.108635,985.932007 96.584320,986.042419 
	C96.112335,985.839111 96.097855,985.605957 96.082031,985.021118 
	C107.178505,984.495667 118.276329,984.321777 129.854370,984.303833 
	C130.268478,984.746643 130.222839,985.036682 130.219940,985.550415 
z"/>
<path fill="#8F98FC" opacity="1.000000" stroke="none" 
	d="
M1194.887329,635.626526 
	C1194.513916,636.037842 1194.162354,636.105896 1193.871338,636.003113 
	C1191.896362,635.305908 1188.258667,637.722839 1188.146851,633.682556 
	C1188.022949,629.205811 1191.938843,631.729675 1194.431152,630.977051 
	C1194.886353,632.373169 1194.911865,633.788696 1194.887329,635.626526 
z"/>
<path fill="#A3AAFC" opacity="1.000000" stroke="none" 
	d="
M1195.575562,465.803406 
	C1193.947266,466.147766 1192.426147,466.267242 1191.028687,465.906952 
	C1189.983887,465.637573 1189.098633,464.749390 1188.142334,464.136810 
	C1189.167236,463.430695 1190.108521,462.487915 1191.241455,462.088287 
	C1192.269653,461.725586 1193.506226,461.954285 1195.038696,461.845428 
	C1195.529541,462.969879 1195.632690,464.171173 1195.575562,465.803406 
z"/>
<path fill="#A3AAFC" opacity="1.000000" stroke="none" 
	d="
M1195.786011,380.726501 
	C1194.053589,381.096283 1192.363037,381.278137 1190.804443,380.906860 
	C1189.816284,380.671509 1189.024536,379.612640 1188.144653,378.923096 
	C1189.080811,378.291718 1189.941284,377.382080 1190.972900,377.100983 
	C1192.197876,376.767212 1193.570312,376.974091 1195.298340,376.904907 
	C1195.773071,378.010223 1195.828369,379.157349 1195.786011,380.726501 
z"/>
<path fill="#A3AAFC" opacity="1.000000" stroke="none" 
	d="
M1195.046387,550.603394 
	C1194.666626,550.998230 1194.318481,551.063599 1194.015381,550.975037 
	C1192.051636,550.401062 1190.097534,549.793518 1188.140381,549.197021 
	C1190.124878,548.461304 1192.109497,547.725586 1194.529907,546.984436 
	C1195.010132,548.053589 1195.054565,549.128113 1195.046387,550.603394 
z"/>
</svg>