<svg version="1.1" id="Layer_1" xmlns="http://www.w3.org/2000/svg" xmlns:xlink="http://www.w3.org/1999/xlink" x="0px" y="0px"
	 width="100%" viewBox="0 0 1080 1080" enable-background="new 0 0 1080 1080" xml:space="preserve">
<path fill="#707BFB" opacity="1.000000" stroke="none" 
	d="
M457.000000,1.000001 
	C512.687561,1.000000 568.375122,1.000000 624.881958,1.218093 
	C638.531433,1.552700 651.361633,1.669212 664.644165,1.807416 
	C676.418396,1.849126 687.740356,1.869145 699.526123,1.918437 
	C718.137207,2.576969 736.284790,3.193957 754.431519,3.837889 
	C800.586121,5.475677 845.907166,11.471008 889.650513,27.405050 
	C948.841187,48.965996 995.036804,86.632713 1028.687134,139.409988 
	C1058.566162,186.272400 1071.830200,238.733170 1075.800903,293.580872 
	C1078.193359,326.629456 1078.739258,359.811768 1080.034058,393.401306 
	C1080.021240,407.206024 1080.089355,420.543427 1080.096680,434.353577 
	C1080.044800,466.610382 1080.040283,498.394470 1080.103027,530.178406 
	C1080.106201,531.786194 1080.687744,533.392822 1081.000000,535.000000 
	C1081.000000,557.687561 1081.000000,580.375122 1080.828491,603.902710 
	C1080.495239,605.548767 1080.196289,606.354065 1080.191772,607.161011 
	C1080.083374,626.552124 1079.986694,645.943481 1079.970703,665.334839 
	C1079.969604,666.556274 1080.641357,667.778259 1081.000000,669.000000 
	C1081.000000,675.021179 1081.000000,681.042297 1080.666260,687.796509 
	C1079.483643,712.159729 1078.648926,735.790466 1077.782715,759.420105 
	C1076.547241,793.118591 1072.569824,826.421082 1064.073853,859.144531 
	C1045.048828,932.421570 1004.308105,990.127441 939.943420,1030.189697 
	C893.723572,1058.958130 842.159668,1071.844604 788.384949,1075.770264 
	C755.018982,1078.206055 721.513184,1078.727661 687.601929,1080.032227 
	C669.149414,1080.043457 651.165100,1080.130737 632.704163,1080.158203 
	C605.751465,1080.071411 579.275330,1080.027466 552.799316,1080.059814 
	C551.199158,1080.061768 549.599731,1080.672607 548.000000,1081.000000 
	C542.645081,1081.000000 537.290100,1081.000000 531.101379,1080.817383 
	C529.286926,1080.478638 528.306458,1080.186890 527.325684,1080.185791 
	C498.525848,1080.153442 469.725983,1080.150269 440.463806,1080.109863 
	C428.316559,1080.100708 416.631683,1080.124023 404.483215,1080.103516 
	C367.903412,1078.727539 331.765045,1077.817505 295.677704,1075.931641 
	C265.984253,1074.379883 236.925812,1068.596680 208.448303,1059.958862 
	C153.982849,1043.438354 108.580238,1013.261475 72.454071,969.331909 
	C33.955429,922.517578 14.904652,867.549866 8.375765,808.255859 
	C4.462986,772.720886 3.948227,736.811768 1.987022,700.603027 
	C1.987940,688.483154 1.908035,676.830994 1.880082,664.701477 
	C1.940374,650.916748 1.977857,637.609253 1.914966,624.302246 
	C1.908182,622.866760 1.319017,621.434021 0.999999,620.000000 
	C1.000000,557.645752 1.000000,495.291534 1.177848,432.099762 
	C1.556623,419.396820 1.770764,407.531555 1.916625,395.665497 
	C1.923402,395.114197 1.319495,394.555328 1.000001,394.000000 
	C1.000000,390.307098 1.000000,386.614166 1.335962,382.197723 
	C2.780370,355.848297 3.573042,330.203918 5.075253,304.601135 
	C7.061656,270.746002 12.607206,237.495453 23.026192,205.100876 
	C44.982258,136.835388 86.455597,83.934601 148.376816,47.877136 
	C193.536057,21.580370 243.347702,9.751051 295.086517,6.137261 
	C326.310028,3.956399 357.637817,3.268304 389.387482,1.988632 
	C395.325012,2.052806 400.797943,2.165125 406.261353,1.986254 
	C411.512695,1.814326 416.754181,1.340928 422.000000,0.999999 
	C422.750000,1.000000 423.500000,1.000000 424.964874,1.236917 
	C432.072174,1.648842 438.465576,1.982135 444.856628,1.941473 
	C448.906250,1.915709 452.952332,1.332954 457.000000,1.000001 
M611.500122,98.561996 
	C560.836609,98.562141 510.172333,98.382011 459.509888,98.612206 
	C406.863800,98.851410 354.198212,98.872734 301.661682,103.009926 
	C271.437164,105.390076 241.926132,111.160652 214.112320,123.679749 
	C174.683075,141.426987 144.988403,169.508179 125.932945,208.454605 
	C111.065887,238.840591 104.029976,271.399170 102.269455,304.863617 
	C100.055420,346.948700 98.595398,389.107544 98.214485,431.247253 
	C97.578827,501.569611 97.716850,571.904358 98.200966,642.229309 
	C98.472740,681.709778 99.722107,721.195129 101.228241,760.651611 
	C102.335747,789.665222 106.054543,818.401489 114.989944,846.216064 
	C131.321182,897.052612 162.912750,934.916565 211.490005,957.602600 
	C242.525864,972.096619 275.848328,978.270874 309.818848,979.830566 
	C352.749481,981.801758 395.735260,983.596741 438.698578,983.628235 
	C544.000916,983.705505 649.330566,985.586060 754.595581,980.972778 
	C788.319336,979.494873 821.607422,975.444031 853.681091,964.109558 
	C897.047546,948.784241 929.927429,920.913574 951.964111,880.750305 
	C968.825684,850.018921 976.449463,816.333008 978.735474,781.664307 
	C980.970886,747.763489 982.653748,713.758545 982.726501,679.795349 
	C982.953552,573.809814 982.528442,467.820923 981.851685,361.836548 
	C981.659302,331.699738 980.078369,301.552155 975.019531,271.721191 
	C970.386230,244.399734 962.487488,218.131317 947.932678,194.409805 
	C920.717773,150.054672 880.644531,123.473473 830.592957,110.964073 
	C796.367859,102.410179 761.383240,101.163452 726.437622,100.166283 
	C688.474121,99.082977 650.480591,99.051476 611.500122,98.561996 
z"/>
<path fill="#FFFFFF" opacity="1.000000" stroke="none" 
	d="
M688.070190,1080.108398 
	C721.513184,1078.727661 755.018982,1078.206055 788.384949,1075.770264 
	C842.159668,1071.844604 893.723572,1058.958130 939.943420,1030.189697 
	C1004.308105,990.127441 1045.048828,932.421570 1064.073853,859.144531 
	C1072.569824,826.421082 1076.547241,793.118591 1077.782715,759.420105 
	C1078.648926,735.790466 1079.483643,712.159729 1080.666260,688.264771 
	C1081.000000,818.927063 1081.000000,949.854187 1081.000000,1081.000000 
	C950.312500,1081.000000 819.624939,1081.000000 688.468018,1080.775635 
	C687.998657,1080.551392 688.070190,1080.108398 688.070190,1080.108398 
z"/>
<path fill="#FFFFFF" opacity="1.000000" stroke="none" 
	d="
M1.906200,701.070801 
	C3.948227,736.811768 4.462986,772.720886 8.375765,808.255859 
	C14.904652,867.549866 33.955429,922.517578 72.454071,969.331909 
	C108.580238,1013.261475 153.982849,1043.438354 208.448303,1059.958862 
	C236.925812,1068.596680 265.984253,1074.379883 295.677704,1075.931641 
	C331.765045,1077.817505 367.903412,1078.727539 404.500946,1080.316406 
	C404.982208,1080.572998 405.000000,1081.000000 405.000000,1081.000000 
	C270.408478,1081.000000 135.816971,1081.000000 1.000000,1081.000000 
	C1.000000,954.645874 1.000000,828.291565 1.226953,701.481201 
	C1.453907,701.025085 1.906201,701.070801 1.906200,701.070801 
z"/>
<path fill="#FFFFFF" opacity="1.000000" stroke="none" 
	d="
M388.918732,1.909449 
	C357.637817,3.268304 326.310028,3.956399 295.086517,6.137261 
	C243.347702,9.751051 193.536057,21.580370 148.376816,47.877136 
	C86.455597,83.934601 44.982258,136.835388 23.026192,205.100876 
	C12.607206,237.495453 7.061656,270.746002 5.075253,304.601135 
	C3.573042,330.203918 2.780370,355.848297 1.335962,381.737091 
	C1.000000,255.072266 1.000000,128.144516 1.000000,1.000000 
	C130.020813,1.000000 259.041748,1.000000 388.539429,1.229902 
	C389.016174,1.459803 388.918732,1.909449 388.918732,1.909449 
z"/>
<path fill="#FFFFFF" opacity="1.000000" stroke="none" 
	d="
M1080.114990,392.933990 
	C1078.739258,359.811768 1078.193359,326.629456 1075.800903,293.580872 
	C1071.830200,238.733170 1058.566162,186.272400 1028.687134,139.409988 
	C995.036804,86.632713 948.841187,48.965996 889.650513,27.405050 
	C845.907166,11.471008 800.586121,5.475677 754.431519,3.837889 
	C736.284790,3.193957 718.137207,2.576969 699.494385,1.697284 
	C698.998718,1.446857 699.000000,1.000000 699.000000,1.000000 
	C826.261292,1.000000 953.522644,1.000000 1081.000000,1.000000 
	C1081.000000,131.354141 1081.000000,261.708405 1080.779175,392.508911 
	C1080.558350,392.955109 1080.114990,392.933990 1080.114990,392.933990 
z"/>
<path fill="#9CA4FC" opacity="1.000000" stroke="none" 
	d="
M1081.000000,534.531372 
	C1080.687744,533.392822 1080.106201,531.786194 1080.103027,530.178406 
	C1080.040283,498.394470 1080.044800,466.610382 1080.308594,434.371307 
	C1080.581665,433.916260 1081.000000,434.000000 1081.000000,434.000000 
	C1081.000000,467.354218 1081.000000,500.708466 1081.000000,534.531372 
z"/>
<path fill="#B2B8FD" opacity="1.000000" stroke="none" 
	d="
M440.926147,1080.142212 
	C469.725983,1080.150269 498.525848,1080.153442 527.325684,1080.185791 
	C528.306458,1080.186890 529.286926,1080.478638 530.633789,1080.817383 
	C501.312439,1081.000000 471.624878,1081.000000 441.454651,1080.785156 
	C440.971954,1080.570312 440.926147,1080.142212 440.926147,1080.142212 
z"/>
<path fill="#939CFC" opacity="1.000000" stroke="none" 
	d="
M548.468628,1081.000000 
	C549.599731,1080.672607 551.199158,1080.061768 552.799316,1080.059814 
	C579.275330,1080.027466 605.751465,1080.071411 632.661011,1080.353638 
	C633.094421,1080.609009 633.000000,1081.000000 633.000000,1081.000000 
	C604.979126,1081.000000 576.958191,1081.000000 548.468628,1081.000000 
z"/>
<path fill="#A3AAFC" opacity="1.000000" stroke="none" 
	d="
M1081.000000,668.531372 
	C1080.641357,667.778259 1079.969604,666.556274 1079.970703,665.334839 
	C1079.986694,645.943481 1080.083374,626.552124 1080.191772,607.161011 
	C1080.196289,606.354065 1080.495239,605.548767 1080.828491,604.371338 
	C1081.000000,625.354248 1081.000000,646.708435 1081.000000,668.531372 
z"/>
<path fill="#C2C7FD" opacity="1.000000" stroke="none" 
	d="
M633.468628,1081.000000 
	C633.000000,1081.000000 633.094421,1080.609009 633.137573,1080.413574 
	C651.165100,1080.130737 669.149414,1080.043457 687.601929,1080.032227 
	C688.070190,1080.108398 687.998657,1080.551392 687.999329,1080.775635 
	C669.979126,1081.000000 651.958191,1081.000000 633.468628,1081.000000 
z"/>
<path fill="#8B94FC" opacity="1.000000" stroke="none" 
	d="
M0.999999,620.468628 
	C1.319017,621.434021 1.908182,622.866760 1.914966,624.302246 
	C1.977857,637.609253 1.940374,650.916748 1.670620,664.670288 
	C1.409207,665.116577 1.000000,665.000000 1.000000,665.000000 
	C1.000000,650.312439 1.000000,635.624878 0.999999,620.468628 
z"/>
<path fill="#C8CCFD" opacity="1.000000" stroke="none" 
	d="
M1081.000000,433.531342 
	C1081.000000,434.000000 1080.581665,433.916260 1080.369629,433.898529 
	C1080.089355,420.543427 1080.021240,407.206024 1080.034058,393.401306 
	C1080.114990,392.933990 1080.558350,392.955109 1080.779175,392.977539 
	C1081.000000,406.354218 1081.000000,419.708466 1081.000000,433.531342 
z"/>
<path fill="#939CFC" opacity="1.000000" stroke="none" 
	d="
M664.191772,1.785725 
	C651.361633,1.669212 638.531433,1.552700 625.350647,1.218093 
	C637.687561,1.000000 650.375122,1.000000 663.582275,1.195691 
	C664.101929,1.391381 664.191772,1.785725 664.191772,1.785725 
z"/>
<path fill="#A3AAFC" opacity="1.000000" stroke="none" 
	d="
M1.000001,394.468658 
	C1.319495,394.555328 1.923402,395.114197 1.916625,395.665497 
	C1.770764,407.531555 1.556623,419.396820 1.177848,431.631104 
	C1.000000,419.645782 1.000000,407.291534 1.000001,394.468658 
z"/>
<path fill="#BBC0FD" opacity="1.000000" stroke="none" 
	d="
M1.000000,665.468628 
	C1.000000,665.000000 1.409207,665.116577 1.618669,665.147705 
	C1.908035,676.830994 1.987940,688.483154 1.987023,700.603027 
	C1.906201,701.070801 1.453907,701.025085 1.226953,701.012573 
	C1.000000,689.312439 1.000000,677.624878 1.000000,665.468628 
z"/>
<path fill="#D8DBFE" opacity="1.000000" stroke="none" 
	d="
M440.463806,1080.109863 
	C440.926147,1080.142212 440.971954,1080.570312 440.985962,1080.785156 
	C429.312439,1081.000000 417.624878,1081.000000 405.468658,1081.000000 
	C405.000000,1081.000000 404.982208,1080.572998 404.964478,1080.360107 
	C416.631683,1080.124023 428.316559,1080.100708 440.463806,1080.109863 
z"/>
<path fill="#C8CCFD" opacity="1.000000" stroke="none" 
	d="
M664.644165,1.807416 
	C664.191772,1.785725 664.101929,1.391381 664.050964,1.195691 
	C675.354248,1.000000 686.708435,1.000000 698.531372,1.000000 
	C699.000000,1.000000 698.998718,1.446857 699.030518,1.668010 
	C687.740356,1.869145 676.418396,1.849126 664.644165,1.807416 
z"/>
<path fill="#B2B8FD" opacity="1.000000" stroke="none" 
	d="
M389.387482,1.988632 
	C388.918732,1.909449 389.016174,1.459803 389.008087,1.229902 
	C399.687561,1.000000 410.375122,1.000000 421.531342,0.999999 
	C416.754181,1.340928 411.512695,1.814326 406.261353,1.986254 
	C400.797943,2.165125 395.325012,2.052806 389.387482,1.988632 
z"/>
<path fill="#939CFC" opacity="1.000000" stroke="none" 
	d="
M456.531342,1.000001 
	C452.952332,1.332954 448.906250,1.915709 444.856628,1.941473 
	C438.465576,1.982135 432.072174,1.648842 425.339874,1.236917 
	C435.354218,1.000000 445.708466,1.000000 456.531342,1.000001 
z"/>
<path fill="#FFFFFF" opacity="1.000000" stroke="none" 
	d="
M612.000122,98.561676 
	C650.480591,99.051476 688.474121,99.082977 726.437622,100.166283 
	C761.383240,101.163452 796.367859,102.410179 830.592957,110.964073 
	C880.644531,123.473473 920.717773,150.054672 947.932678,194.409805 
	C962.487488,218.131317 970.386230,244.399734 975.019531,271.721191 
	C980.078369,301.552155 981.659302,331.699738 981.851685,361.836548 
	C982.528442,467.820923 982.953552,573.809814 982.726501,679.795349 
	C982.653748,713.758545 980.970886,747.763489 978.735474,781.664307 
	C976.449463,816.333008 968.825684,850.018921 951.964111,880.750305 
	C929.927429,920.913574 897.047546,948.784241 853.681091,964.109558 
	C821.607422,975.444031 788.319336,979.494873 754.595581,980.972778 
	C649.330566,985.586060 544.000916,983.705505 438.698578,983.628235 
	C395.735260,983.596741 352.749481,981.801758 309.818848,979.830566 
	C275.848328,978.270874 242.525864,972.096619 211.490005,957.602600 
	C162.912750,934.916565 131.321182,897.052612 114.989944,846.216064 
	C106.054543,818.401489 102.335747,789.665222 101.228241,760.651611 
	C99.722107,721.195129 98.472740,681.709778 98.200966,642.229309 
	C97.716850,571.904358 97.578827,501.569611 98.214485,431.247253 
	C98.595398,389.107544 100.055420,346.948700 102.269455,304.863617 
	C104.029976,271.399170 111.065887,238.840591 125.932945,208.454605 
	C144.988403,169.508179 174.683075,141.426987 214.112320,123.679749 
	C241.926132,111.160652 271.437164,105.390076 301.661682,103.009926 
	C354.198212,98.872734 406.863800,98.851410 459.509888,98.612206 
	C510.172333,98.382011 560.836609,98.562141 612.000122,98.561676 
M270.468048,478.957550 
	C260.552216,522.828552 261.349518,566.627563 272.369141,610.112000 
	C306.891083,746.338379 440.452057,835.770081 579.694092,815.634460 
	C643.717407,806.376038 698.635132,778.361816 742.699036,730.875488 
	C800.863525,668.193481 825.521973,593.793335 816.005371,508.715729 
	C808.965393,445.778534 782.861267,391.333740 738.077515,346.626373 
	C674.589478,283.246735 597.547363,256.470734 508.403015,265.953522 
	C450.527802,272.110107 399.775787,295.284668 356.376007,334.053741 
	C312.736053,373.037415 284.149506,421.134949 270.468048,478.957550 
M784.908203,205.399689 
	C764.921997,225.518082 758.518677,249.289474 768.607361,275.846069 
	C778.353821,301.501648 798.050781,315.713013 825.552307,317.602661 
	C854.802673,319.612457 881.583008,300.839264 890.629272,273.003082 
	C899.752625,244.929657 888.774597,214.132080 863.980286,198.242798 
	C839.211670,182.370010 807.271790,185.083191 784.908203,205.399689 
z"/>
<path fill="#707BFB" opacity="1.000000" stroke="none" 
	d="
M270.587006,478.555359 
	C284.149506,421.134949 312.736053,373.037415 356.376007,334.053741 
	C399.775787,295.284668 450.527802,272.110107 508.403015,265.953522 
	C597.547363,256.470734 674.589478,283.246735 738.077515,346.626373 
	C782.861267,391.333740 808.965393,445.778534 816.005371,508.715729 
	C825.521973,593.793335 800.863525,668.193481 742.699036,730.875488 
	C698.635132,778.361816 643.717407,806.376038 579.694092,815.634460 
	C440.452057,835.770081 306.891083,746.338379 272.369141,610.112000 
	C261.349518,566.627563 260.552216,522.828552 270.587006,478.555359 
M705.126648,468.424194 
	C666.533081,381.434998 568.059937,339.745178 478.355469,372.417816 
	C391.231476,404.150482 342.635223,498.511017 367.040375,587.942688 
	C387.648651,663.460693 454.174896,716.065125 528.951172,720.360413 
	C567.080566,722.550598 602.452820,714.163879 634.818970,694.079163 
	C711.827820,646.291504 741.102112,552.627502 705.126648,468.424194 
z"/>
<path fill="#717CFB" opacity="1.000000" stroke="none" 
	d="
M785.166321,205.157761 
	C807.271790,185.083191 839.211670,182.370010 863.980286,198.242798 
	C888.774597,214.132080 899.752625,244.929657 890.629272,273.003082 
	C881.583008,300.839264 854.802673,319.612457 825.552307,317.602661 
	C798.050781,315.713013 778.353821,301.501648 768.607361,275.846069 
	C758.518677,249.289474 764.921997,225.518082 785.166321,205.157761 
z"/>
<path fill="#FFFFFF" opacity="1.000000" stroke="none" 
	d="
M705.287964,468.768646 
	C741.102112,552.627502 711.827820,646.291504 634.818970,694.079163 
	C602.452820,714.163879 567.080566,722.550598 528.951172,720.360413 
	C454.174896,716.065125 387.648651,663.460693 367.040375,587.942688 
	C342.635223,498.511017 391.231476,404.150482 478.355469,372.417816 
	C568.059937,339.745178 666.533081,381.434998 705.287964,468.768646 
z"/>
</svg>