<svg version="1.1" id="Layer_1" xmlns="http://www.w3.org/2000/svg" xmlns:xlink="http://www.w3.org/1999/xlink" x="0px" y="0px"
	 width="100%" viewBox="0 0 1080 1080" enable-background="new 0 0 1080 1080" xml:space="preserve">
<path fill="#707BFB" opacity="1.000000" stroke="none" 
	d="
M1.000001,851.000000 
	C1.000000,849.933472 1.000000,848.866943 1.241206,847.062622 
	C1.656454,844.684814 1.982778,843.044800 1.982951,841.404785 
	C2.003869,642.366821 2.003745,443.328888 1.957391,244.290939 
	C1.956902,242.193893 1.332916,240.096970 0.999999,238.000000 
	C1.000000,235.299377 1.000000,232.598740 1.339017,229.247162 
	C1.986888,226.988480 2.217381,225.361053 2.616065,223.775940 
	C12.437535,184.727417 46.553078,162.448181 82.283821,162.493484 
	C387.415741,162.880386 692.548340,162.719070 997.680786,162.697922 
	C1007.815430,162.697220 1017.740540,163.561798 1027.436157,166.914703 
	C1051.370483,175.191650 1067.539062,191.243546 1075.874756,215.038239 
	C1078.137695,221.497879 1079.321045,228.335739 1081.000000,235.000000 
	C1081.000000,235.750000 1081.000000,236.500000 1080.743530,237.952469 
	C1080.324707,240.963806 1080.020508,243.272675 1080.020142,245.581558 
	C1079.996094,444.140167 1079.992920,642.698792 1080.035278,841.257385 
	C1080.035645,843.171631 1080.664551,845.085815 1081.000000,847.000000 
	C1081.000000,847.750000 1081.000000,848.500000 1080.684814,849.844482 
	C1079.264404,854.897522 1078.257080,859.382996 1077.038330,863.810242 
	C1068.959351,893.157654 1040.964844,918.294495 1008.365173,918.701111 
	C930.566833,919.671631 852.748718,919.066711 774.938538,919.069519 
	C544.506836,919.077881 314.075165,919.074341 83.643501,919.065796 
	C75.026070,919.065491 66.535233,919.052979 58.042183,916.392334 
	C31.634787,908.119568 13.972833,891.110840 4.962641,865.059753 
	C3.373739,860.465881 2.307557,855.691223 1.000001,851.000000 
M1039.106567,828.364258 
	C1039.311279,828.228333 1039.515991,828.092407 1039.874268,827.036194 
	C1039.891968,826.037354 1039.925171,825.038574 1039.925171,824.039734 
	C1039.927612,637.867432 1039.927979,451.695099 1039.922119,265.522766 
	C1039.922119,264.026123 1039.835205,262.529449 1039.890991,260.503784 
	C1039.177856,260.626251 1038.464722,260.748718 1037.140991,261.128510 
	C1036.733887,261.418427 1036.313965,261.691956 1035.921753,262.000671 
	C917.960632,354.838867 800.001160,447.679047 682.046448,540.525391 
	C680.666199,541.611816 679.348450,542.777588 677.752563,544.114929 
	C679.928589,545.876831 681.585876,547.252686 683.278259,548.584106 
	C785.547058,629.039612 887.811340,709.500610 990.097534,789.933899 
	C1006.328308,802.697021 1022.658691,815.333679 1039.106567,828.364258 
M642.370972,519.876404 
	C771.282410,418.402679 900.193787,316.928955 1029.573608,215.086548 
	C1027.680664,213.393417 1026.302002,212.020096 1024.783081,210.825089 
	C1016.757141,204.510880 1007.332764,203.154541 997.505920,203.154831 
	C694.381714,203.163696 391.257477,203.158066 88.133263,203.195816 
	C82.996468,203.196457 77.795258,203.286057 72.737495,204.067810 
	C64.307983,205.370758 57.235203,209.391724 51.414143,216.152542 
	C52.973316,217.453354 54.070450,218.445007 55.243629,219.336594 
	C212.292297,338.689514 369.382660,457.987671 526.336731,577.464844 
	C539.950500,587.828003 557.946167,586.434448 569.552856,577.203003 
	C593.544861,558.120728 617.708984,539.254822 642.370972,519.876404 
M235.913864,731.408447 
	C175.599319,777.225037 115.284790,823.041626 54.773972,869.007324 
	C63.586304,876.736877 73.357094,878.511230 84.021217,878.508057 
	C388.677948,878.419006 693.334717,878.437805 997.991455,878.417603 
	C1001.319214,878.417419 1004.685730,878.402405 1007.966492,877.927124 
	C1014.377441,876.998291 1020.255066,874.733215 1025.546387,869.981079 
	C898.242798,769.749146 771.449707,669.919189 644.642700,570.078247 
	C642.565735,571.669922 640.970276,572.865479 639.403381,574.097351 
	C624.208618,586.043823 609.226013,598.272583 593.773132,609.875061 
	C575.687439,623.454346 555.392334,628.424255 532.900024,624.175659 
	C519.404907,621.626526 508.136597,615.002197 497.483246,606.789673 
	C481.401306,594.392273 465.176239,582.180664 448.746338,569.688110 
	C377.856537,623.551880 307.167999,677.262756 235.913864,731.408447 
M42.019970,541.500000 
	C42.019970,636.381348 42.019970,731.262634 42.019970,827.373291 
	C166.784714,732.583740 290.565674,638.541626 414.973969,544.022888 
	C290.496429,449.436096 166.680634,355.352173 42.019974,260.626282 
	C42.019974,354.901703 42.019974,447.700836 42.019970,541.500000 
z"/>
<path fill="#FFFFFF" opacity="1.000000" stroke="none" 
	d="
M1.000001,851.468628 
	C2.307557,855.691223 3.373739,860.465881 4.962641,865.059753 
	C13.972833,891.110840 31.634787,908.119568 58.042183,916.392334 
	C66.535233,919.052979 75.026070,919.065491 83.643501,919.065796 
	C314.075165,919.074341 544.506836,919.077881 774.938538,919.069519 
	C852.748718,919.066711 930.566833,919.671631 1008.365173,918.701111 
	C1040.964844,918.294495 1068.959351,893.157654 1077.038330,863.810242 
	C1078.257080,859.382996 1079.264404,854.897522 1080.684814,850.219482 
	C1081.000000,926.978149 1081.000000,1003.956299 1081.000000,1080.967285 
	C721.124023,1080.967285 361.248077,1080.967285 1.000000,1080.967285 
	C1.000000,1004.646179 1.000000,928.291748 1.000001,851.468628 
z"/>
<path fill="#FFFFFF" opacity="1.000000" stroke="none" 
	d="
M1081.000000,234.531342 
	C1079.321045,228.335739 1078.137695,221.497879 1075.874756,215.038239 
	C1067.539062,191.243546 1051.370483,175.191650 1027.436157,166.914703 
	C1017.740540,163.561798 1007.815430,162.697220 997.680786,162.697922 
	C692.548340,162.719070 387.415741,162.880386 82.283821,162.493484 
	C46.553078,162.448181 12.437535,184.727417 2.616065,223.775940 
	C2.217381,225.361053 1.986888,226.988480 1.339017,228.798096 
	C1.000000,153.021561 1.000000,77.043114 1.000000,1.032337 
	C360.876343,1.032337 720.752686,1.032337 1081.000000,1.032337 
	C1081.000000,78.687164 1081.000000,156.374924 1081.000000,234.531342 
z"/>
<path fill="#8690FC" opacity="1.000000" stroke="none" 
	d="
M0.999999,238.468658 
	C1.332916,240.096970 1.956902,242.193893 1.957391,244.290939 
	C2.003745,443.328888 2.003869,642.366821 1.982951,841.404785 
	C1.982778,843.044800 1.656454,844.684814 1.241206,846.662415 
	C1.000000,644.312439 1.000000,441.624878 0.999999,238.468658 
z"/>
<path fill="#929AFC" opacity="1.000000" stroke="none" 
	d="
M1081.000000,846.531372 
	C1080.664551,845.085815 1080.035645,843.171631 1080.035278,841.257385 
	C1079.992920,642.698792 1079.996094,444.140167 1080.020142,245.581558 
	C1080.020508,243.272675 1080.324707,240.963806 1080.743530,238.327469 
	C1081.000000,440.687561 1081.000000,643.375122 1081.000000,846.531372 
z"/>
<path fill="#FFFFFF" opacity="1.000000" stroke="none" 
	d="
M642.086670,520.088196 
	C617.708984,539.254822 593.544861,558.120728 569.552856,577.203003 
	C557.946167,586.434448 539.950500,587.828003 526.336731,577.464844 
	C369.382660,457.987671 212.292297,338.689514 55.243629,219.336594 
	C54.070450,218.445007 52.973316,217.453354 51.414143,216.152542 
	C57.235203,209.391724 64.307983,205.370758 72.737495,204.067810 
	C77.795258,203.286057 82.996468,203.196457 88.133263,203.195816 
	C391.257477,203.158066 694.381714,203.163696 997.505920,203.154831 
	C1007.332764,203.154541 1016.757141,204.510880 1024.783081,210.825089 
	C1026.302002,212.020096 1027.680664,213.393417 1029.573608,215.086548 
	C900.193787,316.928955 771.282410,418.402679 642.086670,520.088196 
z"/>
<path fill="#FFFFFF" opacity="1.000000" stroke="none" 
	d="
M236.196655,731.191040 
	C307.167999,677.262756 377.856537,623.551880 448.746338,569.688110 
	C465.176239,582.180664 481.401306,594.392273 497.483246,606.789673 
	C508.136597,615.002197 519.404907,621.626526 532.900024,624.175659 
	C555.392334,628.424255 575.687439,623.454346 593.773132,609.875061 
	C609.226013,598.272583 624.208618,586.043823 639.403381,574.097351 
	C640.970276,572.865479 642.565735,571.669922 644.642700,570.078247 
	C771.449707,669.919189 898.242798,769.749146 1025.546387,869.981079 
	C1020.255066,874.733215 1014.377441,876.998291 1007.966492,877.927124 
	C1004.685730,878.402405 1001.319214,878.417419 997.991455,878.417603 
	C693.334717,878.437805 388.677948,878.419006 84.021217,878.508057 
	C73.357094,878.511230 63.586304,876.736877 54.773972,869.007324 
	C115.284790,823.041626 175.599319,777.225037 236.196655,731.191040 
z"/>
<path fill="#FFFFFF" opacity="1.000000" stroke="none" 
	d="
M42.019974,541.000000 
	C42.019974,447.700836 42.019974,354.901703 42.019974,260.626282 
	C166.680634,355.352173 290.496429,449.436096 414.973969,544.022888 
	C290.565674,638.541626 166.784714,732.583740 42.019970,827.373291 
	C42.019970,731.262634 42.019970,636.381348 42.019974,541.000000 
z"/>
<path fill="#FFFFFF" opacity="1.000000" stroke="none" 
	d="
M1039.788818,261.032806 
	C1039.835205,262.529449 1039.922119,264.026123 1039.922119,265.522766 
	C1039.927979,451.695099 1039.927612,637.867432 1039.925171,824.039734 
	C1039.925171,825.038574 1039.891968,826.037354 1039.601807,827.502197 
	C1039.329468,827.968140 1038.942993,828.028809 1038.942993,828.028809 
	C1022.658691,815.333679 1006.328308,802.697021 990.097534,789.933899 
	C887.811340,709.500610 785.547058,629.039612 683.278259,548.584106 
	C681.585876,547.252686 679.928589,545.876831 677.752563,544.114929 
	C679.348450,542.777588 680.666199,541.611816 682.046448,540.525391 
	C800.001160,447.679047 917.960632,354.838867 1035.921753,262.000671 
	C1036.313965,261.691956 1036.733887,261.418427 1037.785400,261.033997 
	C1038.882690,260.970612 1039.335815,261.001709 1039.788818,261.032806 
z"/>
<path fill="#EDEEFE" opacity="1.000000" stroke="none" 
	d="
M1039.839844,260.768311 
	C1039.335815,261.001709 1038.882690,260.970612 1038.090576,260.905365 
	C1038.464722,260.748718 1039.177856,260.626251 1039.839844,260.768311 
z"/>
<path fill="#EDEEFE" opacity="1.000000" stroke="none" 
	d="
M1039.024780,828.196533 
	C1038.942993,828.028809 1039.329468,827.968140 1039.525146,827.962280 
	C1039.515991,828.092407 1039.311279,828.228333 1039.024780,828.196533 
z"/>
</svg>