<svg version="1.1" id="Layer_1" xmlns="http://www.w3.org/2000/svg" xmlns:xlink="http://www.w3.org/1999/xlink" x="0px" y="0px"
	 width="100%" viewBox="0 0 1080 846" enable-background="new 0 0 1080 846" xml:space="preserve">
<path fill="#707BFB" opacity="1.000000" stroke="none" 
	d="
M467.000000,0.999999 
	C473.354401,1.000000 479.708801,1.000000 486.644470,1.434245 
	C487.483551,17.693424 487.772186,33.517933 487.992188,49.343391 
	C488.343597,74.619293 488.707184,99.895264 488.951660,125.172310 
	C489.087036,139.166412 488.986664,153.162750 489.002960,167.158081 
	C489.005737,169.558563 489.163910,171.623611 485.662384,172.046494 
	C473.682098,173.493332 461.694427,174.992096 449.797363,176.993210 
	C415.836487,182.705475 382.796631,191.292236 352.178772,207.819366 
	C337.250824,215.877289 323.564301,225.601059 311.481445,237.293655 
	C300.313721,248.100693 291.296844,260.814606 284.078644,274.680878 
	C269.767670,302.172394 264.019073,331.943390 262.246521,362.422638 
	C261.235779,379.801575 262.603027,397.325195 263.080109,414.778748 
	C263.172760,418.166901 264.100830,421.532227 264.712341,425.336060 
	C318.350311,425.336060 371.770813,425.336060 425.503906,425.336060 
	C425.503906,565.343384 425.503906,704.869141 425.503906,845.000000 
	C283.813782,845.000000 142.406891,845.000000 1.000000,845.000000 
	C1.000000,715.312439 1.000000,585.624878 1.247338,455.135834 
	C2.651889,437.620575 3.369846,420.861603 5.084417,404.205200 
	C6.964644,385.939545 9.245981,367.681824 12.274037,349.574768 
	C18.046534,315.056610 27.180086,281.400055 39.934326,248.757401 
	C61.442181,193.711151 93.599663,146.270584 139.604095,108.655823 
	C179.792557,75.796371 224.945648,51.965778 273.944977,35.347298 
	C330.293091,16.236429 388.390076,6.197986 447.727203,2.906228 
	C454.166901,2.548982 460.576447,1.648501 467.000000,0.999999 
z"/>
<path fill="#707BFB" opacity="1.000000" stroke="none" 
	d="
M1056.000000,1.000002 
	C1064.314819,1.000000 1072.629517,1.000000 1081.000000,1.000000 
	C1081.000000,58.020882 1081.000000,115.041786 1080.575317,172.534607 
	C1078.363281,173.317337 1076.587524,173.754089 1074.786865,173.919937 
	C1049.943604,176.208160 1025.479248,180.625000 1001.381653,187.049988 
	C971.637756,194.980438 943.430054,206.234787 918.852905,225.341736 
	C896.656921,242.597549 880.222656,264.128296 870.018860,290.390472 
	C863.260925,307.783905 859.225281,325.843597 857.277405,344.316956 
	C855.992371,356.504761 855.173523,368.801147 855.176514,381.048706 
	C855.179504,393.460266 856.571289,405.866180 857.117737,418.285034 
	C857.419189,425.135986 857.199768,425.155823 863.859009,425.156219 
	C913.352600,425.159271 962.846130,425.157928 1012.339722,425.157959 
	C1014.440674,425.157959 1016.541626,425.157959 1018.730347,425.157959 
	C1018.730347,565.462585 1018.730347,705.010559 1018.730347,844.655762 
	C877.317993,844.655762 736.265930,844.655762 594.692078,844.655762 
	C594.692078,842.517090 594.695068,840.719543 594.691650,838.922058 
	C594.461487,718.290405 594.151733,597.658875 594.098267,477.027130 
	C594.091431,461.630371 595.277527,446.224640 596.176025,430.838531 
	C596.944519,417.678589 597.555237,404.472839 599.207153,391.410187 
	C601.369507,374.312073 603.680847,357.156921 607.388123,340.348358 
	C612.587219,316.775970 618.222473,293.219025 625.353271,270.176025 
	C632.525391,246.999374 642.402466,224.744827 654.196716,203.435318 
	C666.189819,181.766510 679.867249,161.176376 696.735596,143.071899 
	C708.923767,129.990540 721.942322,117.504692 735.730896,106.136406 
	C754.202148,90.907417 774.228699,77.658394 795.389587,66.349899 
	C826.318909,49.821114 858.727173,36.760864 892.468384,27.266008 
	C941.170410,13.561121 990.868835,5.641542 1041.402100,2.938176 
	C1046.288696,2.676764 1051.135010,1.663993 1056.000000,1.000002 
z"/>
<path fill="#FFFFFF" opacity="1.000000" stroke="none" 
	d="
M1055.531372,1.000002 
	C1051.135010,1.663993 1046.288696,2.676764 1041.402100,2.938176 
	C990.868835,5.641542 941.170410,13.561121 892.468384,27.266008 
	C858.727173,36.760864 826.318909,49.821114 795.389587,66.349899 
	C774.228699,77.658394 754.202148,90.907417 735.730896,106.136406 
	C721.942322,117.504692 708.923767,129.990540 696.735596,143.071899 
	C679.867249,161.176376 666.189819,181.766510 654.196716,203.435318 
	C642.402466,224.744827 632.525391,246.999374 625.353271,270.176025 
	C618.222473,293.219025 612.587219,316.775970 607.388123,340.348358 
	C603.680847,357.156921 601.369507,374.312073 599.207153,391.410187 
	C597.555237,404.472839 596.944519,417.678589 596.176025,430.838531 
	C595.277527,446.224640 594.091431,461.630371 594.098267,477.027130 
	C594.151733,597.658875 594.461487,718.290405 594.691650,838.922058 
	C594.695068,840.719543 594.692078,842.517090 594.692078,844.655762 
	C736.265930,844.655762 877.317993,844.655762 1018.730347,844.655762 
	C1018.730347,705.010559 1018.730347,565.462585 1018.730347,425.157959 
	C1016.541626,425.157959 1014.440674,425.157959 1012.339722,425.157959 
	C962.846130,425.157928 913.352600,425.159271 863.859009,425.156219 
	C857.199768,425.155823 857.419189,425.135986 857.117737,418.285034 
	C856.571289,405.866180 855.179504,393.460266 855.176514,381.048706 
	C855.173523,368.801147 855.992371,356.504761 857.277405,344.316956 
	C859.225281,325.843597 863.260925,307.783905 870.018860,290.390472 
	C880.222656,264.128296 896.656921,242.597549 918.852905,225.341736 
	C943.430054,206.234787 971.637756,194.980438 1001.381653,187.049988 
	C1025.479248,180.625000 1049.943604,176.208160 1074.786865,173.919937 
	C1076.587524,173.754089 1078.363281,173.317337 1080.575317,173.003265 
	C1081.000000,397.666656 1081.000000,622.333313 1081.000000,847.000000 
	C722.500000,847.000000 364.000000,847.001221 5.500005,846.958801 
	C3.999962,846.958618 2.499997,846.333374 0.999998,845.500000 
	C142.406891,845.000000 283.813782,845.000000 425.503906,845.000000 
	C425.503906,704.869141 425.503906,565.343384 425.503906,425.336060 
	C371.770813,425.336060 318.350311,425.336060 264.712341,425.336060 
	C264.100830,421.532227 263.172760,418.166901 263.080109,414.778748 
	C262.603027,397.325195 261.235779,379.801575 262.246521,362.422638 
	C264.019073,331.943390 269.767670,302.172394 284.078644,274.680878 
	C291.296844,260.814606 300.313721,248.100693 311.481445,237.293655 
	C323.564301,225.601059 337.250824,215.877289 352.178772,207.819366 
	C382.796631,191.292236 415.836487,182.705475 449.797363,176.993210 
	C461.694427,174.992096 473.682098,173.493332 485.662384,172.046494 
	C489.163910,171.623611 489.005737,169.558563 489.002960,167.158081 
	C488.986664,153.162750 489.087036,139.166412 488.951660,125.172310 
	C488.707184,99.895264 488.343597,74.619293 487.992188,49.343391 
	C487.772186,33.517933 487.483551,17.693424 487.112854,1.434245 
	C676.354248,1.000000 865.708496,1.000000 1055.531372,1.000002 
z"/>
<path fill="#FFFFFF" opacity="1.000000" stroke="none" 
	d="
M466.531342,0.999999 
	C460.576447,1.648501 454.166901,2.548982 447.727203,2.906228 
	C388.390076,6.197986 330.293091,16.236429 273.944977,35.347298 
	C224.945648,51.965778 179.792557,75.796371 139.604095,108.655823 
	C93.599663,146.270584 61.442181,193.711151 39.934326,248.757401 
	C27.180086,281.400055 18.046534,315.056610 12.274037,349.574768 
	C9.245981,367.681824 6.964644,385.939545 5.084417,404.205200 
	C3.369846,420.861603 2.651889,437.620575 1.247338,454.667175 
	C1.000000,303.738617 1.000000,152.477264 1.000000,1.000000 
	C156.020828,1.000000 311.041748,1.000000 466.531342,0.999999 
z"/>
</svg>