<svg version="1.1" id="Layer_1" xmlns="http://www.w3.org/2000/svg" xmlns:xlink="http://www.w3.org/1999/xlink" x="0px" y="0px"
	 width="100%" viewBox="0 0 1080 846" enable-background="new 0 0 1080 846" xml:space="preserve">
<path fill="#707BFB" opacity="1.000000" stroke="none" 
	d="
M1081.000000,3.000000 
	C1081.000000,132.687561 1081.000000,262.375122 1080.753174,392.862885 
	C1080.008057,399.272583 1079.468262,404.878754 1079.019775,410.492249 
	C1078.007935,423.156097 1077.455688,435.872742 1075.958740,448.477966 
	C1073.705200,467.452240 1071.137695,486.403290 1068.103149,505.267609 
	C1062.862549,537.845276 1053.848877,569.441467 1041.723145,600.113586 
	C1026.039429,639.785583 1004.970947,676.225403 975.846680,707.671936 
	C936.069763,750.620605 887.832520,781.090332 833.925171,802.935242 
	C771.507507,828.228882 706.154236,840.240540 639.270752,845.051147 
	C631.175659,845.633301 623.090027,846.347168 615.000000,847.000000 
	C608.645569,847.000000 602.291199,847.000000 595.355469,846.565796 
	C593.857239,789.967285 592.940308,733.802979 592.019531,677.407043 
	C594.546387,676.903320 596.760925,676.375366 599.003418,676.028503 
	C614.814514,673.583130 630.796753,671.945190 646.411194,668.591431 
	C677.112000,661.997253 707.116760,653.141235 734.551880,637.153687 
	C753.025452,626.388306 769.506470,613.309998 782.674011,596.381348 
	C795.906799,579.368835 805.631226,560.359558 810.526733,539.442261 
	C814.451660,522.671875 817.686707,505.506134 818.751282,488.362030 
	C819.961548,468.872375 818.438171,449.211426 818.062195,429.625702 
	C817.941040,423.314514 817.423157,422.844910 811.261902,422.844421 
	C761.767090,422.840393 712.272339,422.845734 662.777527,422.829285 
	C660.691589,422.828583 658.605652,422.641968 656.629517,422.547211 
	C656.629517,282.384460 656.629517,142.845276 656.629517,3.000000 
	C798.386169,3.000000 939.693054,3.000000 1081.000000,3.000000 
z"/>
<path fill="#707BFB" opacity="1.000000" stroke="none" 
	d="
M27.000004,847.000000 
	C18.352524,847.000000 9.705047,847.000000 1.000000,847.000000 
	C1.000000,789.979126 1.000000,732.958191 1.432609,675.466919 
	C4.156187,674.690491 6.441463,674.330994 8.738993,674.086670 
	C35.160015,671.277649 61.207264,666.497009 86.716019,659.016296 
	C117.225639,650.069092 145.851105,637.593079 170.306335,616.466919 
	C188.144272,601.057251 200.929474,582.389038 210.199051,560.984253 
	C220.202103,537.885620 224.661240,513.455994 225.683273,488.606781 
	C226.574097,466.948151 225.303238,445.200653 224.978241,422.853394 
	C170.262680,422.853394 116.874985,422.853394 63.216957,422.853394 
	C63.216957,282.641754 63.216957,143.091614 63.216957,3.304657 
	C204.579498,3.304657 345.634674,3.304657 487.308258,3.304657 
	C487.308258,5.878120 487.308258,8.165811 487.308258,10.453500 
	C487.308258,123.944237 487.363953,237.435043 487.250031,350.925659 
	C487.232330,368.545319 486.789886,386.181793 485.905457,403.778412 
	C485.032745,421.141327 483.778503,438.510132 481.901215,455.790497 
	C480.049316,472.837402 477.831329,489.894257 474.661163,506.737305 
	C469.165283,535.936768 461.476624,564.580566 451.049530,592.483643 
	C434.769958,636.048157 412.061859,675.684143 380.368103,709.909241 
	C364.200073,727.368591 345.902863,742.389771 326.520111,756.152161 
	C302.994843,772.855713 278.061188,787.143616 251.365677,797.959656 
	C229.853989,806.675354 208.062057,815.016296 185.804886,821.499573 
	C153.812241,830.818665 121.137589,837.609436 87.893074,840.992859 
	C69.179024,842.897339 50.417809,844.336731 31.682037,846.031982 
	C30.105074,846.174683 28.559933,846.669067 27.000004,847.000000 
z"/>
<path fill="#FFFFFF" opacity="1.000000" stroke="none" 
	d="
M27.468662,847.000000 
	C28.559933,846.669067 30.105074,846.174683 31.682037,846.031982 
	C50.417809,844.336731 69.179024,842.897339 87.893074,840.992859 
	C121.137589,837.609436 153.812241,830.818665 185.804886,821.499573 
	C208.062057,815.016296 229.853989,806.675354 251.365677,797.959656 
	C278.061188,787.143616 302.994843,772.855713 326.520111,756.152161 
	C345.902863,742.389771 364.200073,727.368591 380.368103,709.909241 
	C412.061859,675.684143 434.769958,636.048157 451.049530,592.483643 
	C461.476624,564.580566 469.165283,535.936768 474.661163,506.737305 
	C477.831329,489.894257 480.049316,472.837402 481.901215,455.790497 
	C483.778503,438.510132 485.032745,421.141327 485.905457,403.778412 
	C486.789886,386.181793 487.232330,368.545319 487.250031,350.925659 
	C487.363953,237.435043 487.308258,123.944237 487.308258,10.453500 
	C487.308258,8.165811 487.308258,5.878120 487.308258,3.304657 
	C345.634674,3.304657 204.579498,3.304657 63.216957,3.304657 
	C63.216957,143.091614 63.216957,282.641754 63.216957,422.853394 
	C116.874985,422.853394 170.262680,422.853394 224.978241,422.853394 
	C225.303238,445.200653 226.574097,466.948151 225.683273,488.606781 
	C224.661240,513.455994 220.202103,537.885620 210.199051,560.984253 
	C200.929474,582.389038 188.144272,601.057251 170.306335,616.466919 
	C145.851105,637.593079 117.225639,650.069092 86.716019,659.016296 
	C61.207264,666.497009 35.160015,671.277649 8.738993,674.086670 
	C6.441463,674.330994 4.156187,674.690491 1.432609,674.998291 
	C1.000000,450.333344 1.000000,225.666672 1.000000,1.000000 
	C359.500000,1.000000 718.000000,0.998778 1076.500000,1.041223 
	C1078.000000,1.041401 1079.500000,1.666655 1081.000000,2.499994 
	C939.693054,3.000000 798.386169,3.000000 656.629517,3.000000 
	C656.629517,142.845276 656.629517,282.384460 656.629517,422.547211 
	C658.605652,422.641968 660.691589,422.828583 662.777527,422.829285 
	C712.272339,422.845734 761.767090,422.840393 811.261902,422.844421 
	C817.423157,422.844910 817.941040,423.314514 818.062195,429.625702 
	C818.438171,449.211426 819.961548,468.872375 818.751282,488.362030 
	C817.686707,505.506134 814.451660,522.671875 810.526733,539.442261 
	C805.631226,560.359558 795.906799,579.368835 782.674011,596.381348 
	C769.506470,613.309998 753.025452,626.388306 734.551880,637.153687 
	C707.116760,653.141235 677.112000,661.997253 646.411194,668.591431 
	C630.796753,671.945190 614.814514,673.583130 599.003418,676.028503 
	C596.760925,676.375366 594.546387,676.903320 592.019531,677.407043 
	C592.940308,733.802979 593.857239,789.967285 594.887085,846.565796 
	C405.979095,847.000000 216.958206,847.000000 27.468662,847.000000 
z"/>
<path fill="#FFFFFF" opacity="1.000000" stroke="none" 
	d="
M615.468628,847.000000 
	C623.090027,846.347168 631.175659,845.633301 639.270752,845.051147 
	C706.154236,840.240540 771.507507,828.228882 833.925171,802.935242 
	C887.832520,781.090332 936.069763,750.620605 975.846680,707.671936 
	C1004.970947,676.225403 1026.039429,639.785583 1041.723145,600.113586 
	C1053.848877,569.441467 1062.862549,537.845276 1068.103149,505.267609 
	C1071.137695,486.403290 1073.705200,467.452240 1075.958740,448.477966 
	C1077.455688,435.872742 1078.007935,423.156097 1079.019775,410.492249 
	C1079.468262,404.878754 1080.008057,399.272583 1080.753174,393.331543 
	C1081.000000,544.261353 1081.000000,695.522705 1081.000000,847.000000 
	C925.979187,847.000000 770.958252,847.000000 615.468628,847.000000 
z"/>
</svg>